<?xml version="1.0" encoding="utf-8"?>
<!-- Generator: Adobe Illustrator 25.4.1, SVG Export Plug-In . SVG Version: 6.00 Build 0)  -->
<svg version="1.0" xmlns="http://www.w3.org/2000/svg" xmlns:xlink="http://www.w3.org/1999/xlink" x="0px" y="0px"
	 viewBox="0 0 428.413 80.327" enable-background="new 0 0 428.413 80.327" xml:space="preserve">
<g id="Layer_1">
	<path fill="#CFB87C" d="M59.6,20.07v-9.15L48.7,0H10.93L0,10.92v37.7l10.93,10.91h12v9.18l11.02,10.93h31.87l11.04-10.92V39.51
		h5.63V20.07H59.6z"/>
	<path fill="#231F20" d="M48.23,1.13l10.23,10.26v9.81h22.9v17.19h-5.63v29.85L65.35,78.5H34.41L24.06,68.24V58.4H11.4L1.13,48.15
		V11.39L11.4,1.13H48.23z"/>
	<path fill="#FFFFFF" d="M12.57,55.57h14.32v11.49l8.69,8.61h28.61l8.71-8.61V35.55h5.63V24.04H61.26v40.13H38.4v-8.6h8.65l8.58-8.6
		V35.55H44.12v8.53H38.4V24.04H21.18v11.51h5.71v8.53H15.45V15.37h28.67v8.67h11.51V12.57l-8.58-8.61H12.57l-8.61,8.6v34.41
		L12.57,55.57z"/>
	<path fill="#CFB87C" d="M36.98,54.15h9.49l7.75-7.76v-9.42h-8.68v8.53h-8.56V25.46H22.6v8.68h5.71V45.5H14.04V13.95h31.5v8.67h8.68
		v-9.47l-7.75-7.77H13.16l-7.78,7.77v33.24l7.78,7.76h15.15v12.32l7.85,7.79H63.6l7.88-7.8V34.14h5.63v-8.68H62.67v40.12H36.98
		V54.15z"/>
	<path d="M116.501,41.797c-1.61,1.525-3.923,2.287-6.94,2.287c-3.07,0-5.466-0.728-7.188-2.185
		c-1.722-1.456-2.583-3.774-2.583-6.952V19.738h3.168v15.208c0,2.136,0.567,3.746,1.702,4.828c1.135,1.082,2.768,1.634,4.9,1.654
		c2.011,0,3.55-0.551,4.617-1.654c1.066-1.102,1.595-2.712,1.587-4.828V19.738h3.168v15.208
		C118.933,37.988,118.123,40.272,116.501,41.797z"/>
	<path d="M126.206,26.298v2.734h0.097c1.179-2.092,3.048-3.138,5.607-3.138c0.967-0.03,1.93,0.128,2.837,0.465
		c0.7,0.282,1.321,0.729,1.811,1.304c0.477,0.577,0.814,1.256,0.984,1.986c0.197,0.836,0.292,1.694,0.284,2.553v11.34h-2.836V31.875
		c0.024-0.464-0.046-0.928-0.208-1.363c-0.161-0.436-0.409-0.834-0.728-1.171c-0.343-0.322-0.748-0.57-1.189-0.731
		c-0.442-0.161-0.912-0.23-1.381-0.204c-0.769-0.019-1.535,0.117-2.251,0.398c-0.61,0.249-1.154,0.638-1.587,1.135
		c-0.431,0.503-0.756,1.088-0.954,1.72c-0.217,0.697-0.323,1.424-0.314,2.155v9.741h-2.836V26.298H126.206z"/>
	<path d="M142.247,23.202v-3.47h2.836v3.47H142.247z M145.083,26.304v17.242h-2.836V26.298L145.083,26.304z"/>
	<path d="M154.22,43.547l-6.403-17.248h3.168l4.828,14.376h0.06l4.719-14.376h2.969l-6.307,17.242L154.22,43.547z"/>
	<path d="M178.373,42.448c-1.416,1.016-3.129,1.532-4.87,1.467c-1.229,0.028-2.449-0.2-3.585-0.67
		c-0.989-0.416-1.87-1.051-2.577-1.859c-0.71-0.838-1.238-1.814-1.551-2.867c-0.361-1.175-0.565-2.392-0.604-3.621
		c-0.016-1.233,0.189-2.459,0.604-3.621c0.373-1.045,0.945-2.008,1.684-2.836c0.717-0.795,1.593-1.43,2.571-1.865
		c1.024-0.453,2.133-0.681,3.253-0.67c1.337-0.052,2.662,0.277,3.82,0.948c0.978,0.61,1.804,1.436,2.414,2.414
		c0.613,0.983,1.042,2.069,1.267,3.205c0.228,1.085,0.322,2.193,0.284,3.301h-12.849c-0.026,0.726,0.063,1.451,0.266,2.148
		c0.188,0.666,0.518,1.283,0.966,1.811c0.467,0.538,1.048,0.965,1.702,1.249c0.763,0.324,1.585,0.482,2.414,0.465
		c1.048,0.045,2.082-0.247,2.951-0.833c0.807-0.623,1.349-1.529,1.515-2.535h2.8C180.601,39.795,179.717,41.355,178.373,42.448
		L178.373,42.448z M177.691,31.374c-0.241-0.579-0.591-1.105-1.032-1.551c-0.441-0.438-0.961-0.788-1.533-1.032
		c-0.616-0.26-1.28-0.39-1.949-0.38c-0.681-0.011-1.357,0.118-1.986,0.38c-0.571,0.244-1.086,0.601-1.515,1.05
		c-0.427,0.451-0.766,0.977-1.002,1.551c-0.247,0.599-0.394,1.236-0.435,1.883h9.904C178.101,32.62,177.948,31.978,177.691,31.374
		L177.691,31.374z"/>
	<path d="M186.653,26.298v3.621h0.066c0.555-1.24,1.43-2.311,2.535-3.102c1.138-0.703,2.468-1.03,3.802-0.935V28.9
		c-0.988-0.025-1.972,0.132-2.903,0.465c-0.755,0.278-1.424,0.751-1.937,1.37c-0.511,0.642-0.875,1.388-1.068,2.185
		c-0.235,0.966-0.346,1.957-0.332,2.951v7.671h-2.836V26.298H186.653z"/>
	<path d="M197.347,39.696c0.26,0.425,0.62,0.78,1.05,1.032c0.454,0.264,0.951,0.449,1.467,0.549c0.554,0.113,1.118,0.17,1.684,0.169
		c0.468-0.003,0.936-0.037,1.4-0.103c0.465-0.061,0.92-0.184,1.352-0.368c0.402-0.169,0.753-0.439,1.02-0.785
		c0.278-0.381,0.418-0.845,0.398-1.316c0.017-0.326-0.051-0.651-0.197-0.943c-0.146-0.292-0.365-0.541-0.636-0.723
		c-0.64-0.416-1.343-0.726-2.082-0.917c-0.833-0.233-1.738-0.435-2.716-0.604c-0.93-0.175-1.84-0.444-2.716-0.803
		c-0.795-0.318-1.508-0.813-2.082-1.448c-0.593-0.733-0.89-1.66-0.833-2.601c-0.016-0.787,0.194-1.561,0.604-2.233
		c0.38-0.612,0.894-1.13,1.503-1.515c0.638-0.401,1.337-0.694,2.07-0.869c0.748-0.187,1.516-0.282,2.287-0.284
		c0.907-0.008,1.813,0.075,2.704,0.247c0.777,0.149,1.518,0.444,2.185,0.869c0.638,0.418,1.159,0.991,1.515,1.666
		c0.409,0.815,0.637,1.708,0.67,2.619h-2.836c-0.025-0.49-0.174-0.966-0.435-1.382c-0.24-0.361-0.561-0.663-0.935-0.881
		c-0.389-0.226-0.81-0.389-1.249-0.483c-0.454-0.1-0.917-0.151-1.382-0.151c-0.43,0.001-0.86,0.035-1.285,0.103
		c-0.417,0.057-0.824,0.175-1.207,0.35c-0.337,0.154-0.635,0.383-0.869,0.67c-0.233,0.313-0.351,0.697-0.332,1.086
		c-0.004,0.226,0.04,0.451,0.129,0.66c0.09,0.208,0.223,0.395,0.39,0.548c0.384,0.348,0.83,0.62,1.316,0.803
		c0.588,0.226,1.194,0.404,1.811,0.531l2.004,0.453c0.703,0.154,1.398,0.343,2.082,0.567c0.644,0.202,1.254,0.499,1.811,0.881
		c0.518,0.362,0.951,0.834,1.267,1.382c0.342,0.635,0.508,1.349,0.483,2.07c0.033,0.911-0.193,1.813-0.652,2.601
		c-0.427,0.682-1.01,1.253-1.702,1.666c-0.73,0.432-1.531,0.731-2.366,0.881c-0.864,0.164-1.741,0.247-2.619,0.247
		c-0.92,0.004-1.837-0.097-2.734-0.302c-0.821-0.181-1.602-0.514-2.299-0.984c-0.673-0.464-1.222-1.085-1.599-1.811
		c-0.426-0.843-0.655-1.771-0.67-2.716h2.8C196.919,38.679,197.069,39.22,197.347,39.696L197.347,39.696z"/>
	<path d="M212,23.202v-3.47h2.837v3.47H212z M214.837,26.304v17.242H212V26.298L214.837,26.304z"/>
	<path d="M226.635,26.298v2.505h-3.434v10.706c-0.007,0.27,0.021,0.54,0.084,0.803c0.047,0.187,0.158,0.351,0.314,0.465
		c0.196,0.126,0.42,0.2,0.652,0.217c0.361,0.037,0.724,0.053,1.086,0.048h1.304v2.505h-2.167c-0.631,0.008-1.261-0.042-1.883-0.151
		c-0.462-0.073-0.899-0.262-1.267-0.549c-0.345-0.3-0.594-0.694-0.718-1.135c-0.174-0.628-0.254-1.279-0.235-1.931V28.803h-2.939
		v-2.505h2.933v-5.172h2.837v5.172H226.635z"/>
	<path d="M236.539,45.846c-0.281,0.733-0.61,1.446-0.984,2.136c-0.282,0.524-0.642,1.002-1.068,1.418
		c-0.372,0.357-0.817,0.631-1.304,0.803c-0.533,0.175-1.092,0.258-1.654,0.247c-0.335,0-0.67-0.022-1.002-0.066
		c-0.329-0.045-0.653-0.124-0.966-0.235v-2.601c0.274,0.121,0.559,0.216,0.851,0.284c0.266,0.069,0.54,0.107,0.815,0.115
		c0.515,0.019,1.022-0.127,1.448-0.416c0.407-0.306,0.714-0.726,0.881-1.207l1.165-2.903l-6.82-17.122h3.205l5.033,14.116h0.066
		l4.828-14.11h3.018L236.539,45.846z"/>
	<path d="M255.32,31.392c0.331-1.055,0.875-2.031,1.599-2.867c0.728-0.825,1.629-1.48,2.637-1.919c2.322-0.94,4.919-0.94,7.242,0
		c1.001,0.443,1.895,1.098,2.619,1.919c0.724,0.836,1.268,1.812,1.599,2.867c0.363,1.15,0.542,2.349,0.531,3.555
		c0.011,1.2-0.168,2.393-0.531,3.537c-0.333,1.051-0.877,2.022-1.599,2.855c-0.722,0.819-1.617,1.468-2.619,1.901
		c-2.327,0.917-4.915,0.917-7.242,0c-1.01-0.429-1.911-1.079-2.637-1.901c-0.722-0.832-1.267-1.804-1.599-2.855
		c-0.363-1.143-0.543-2.337-0.531-3.537C254.778,33.741,254.957,32.542,255.32,31.392L255.32,31.392z M258.205,37.729
		c0.243,0.749,0.635,1.441,1.153,2.034c0.477,0.535,1.063,0.961,1.72,1.249c0.658,0.286,1.368,0.434,2.085,0.434
		c0.718,0,1.427-0.148,2.085-0.434c0.657-0.288,1.243-0.714,1.72-1.249c0.518-0.593,0.91-1.285,1.153-2.034
		c0.556-1.815,0.556-3.755,0-5.57c-0.246-0.753-0.637-1.45-1.153-2.052c-0.473-0.544-1.06-0.976-1.72-1.267
		c-0.658-0.286-1.368-0.434-2.085-0.434c-0.718,0-1.427,0.148-2.085,0.434c-0.66,0.291-1.247,0.724-1.72,1.267
		c-0.515,0.602-0.907,1.299-1.153,2.052C257.648,33.974,257.648,35.914,258.205,37.729z"/>
	<path d="M273.13,28.803v-2.505h2.903v-2.571c-0.043-0.587,0.042-1.176,0.251-1.727c0.208-0.55,0.535-1.049,0.956-1.46
		c1.01-0.79,2.276-1.177,3.555-1.086c0.307,0.003,0.613,0.025,0.917,0.066c0.311,0.037,0.619,0.104,0.917,0.199v2.468
		c-0.26-0.091-0.529-0.152-0.803-0.181c-0.266-0.032-0.535-0.048-0.803-0.048c-0.561-0.034-1.12,0.105-1.599,0.398
		c-0.211,0.191-0.374,0.43-0.472,0.697c-0.099,0.267-0.132,0.554-0.095,0.836v2.414h3.337v2.505h-3.325v14.744h-2.836v-14.75H273.13
		z"/>
	<path d="M308.869,23.1c-1.273-0.863-2.784-1.307-4.321-1.267c-1.264-0.035-2.518,0.241-3.651,0.803
		c-0.989,0.515-1.844,1.253-2.499,2.155c-0.669,0.93-1.16,1.975-1.448,3.084c-0.314,1.181-0.471,2.399-0.465,3.621
		c-0.008,1.298,0.148,2.592,0.465,3.85c0.276,1.139,0.768,2.214,1.448,3.168c0.659,0.905,1.521,1.643,2.517,2.155
		c1.14,0.561,2.4,0.836,3.669,0.803c0.953,0.017,1.899-0.16,2.782-0.519c0.791-0.331,1.505-0.82,2.1-1.436
		c0.599-0.631,1.069-1.373,1.382-2.185c0.341-0.875,0.544-1.797,0.604-2.734h3.144c-0.31,3.001-1.344,5.337-3.102,7.007
		c-1.758,1.67-4.144,2.495-7.158,2.474c-1.659,0.037-3.306-0.286-4.828-0.948c-1.331-0.598-2.506-1.494-3.434-2.619
		c-0.939-1.162-1.637-2.5-2.052-3.935c-0.465-1.581-0.695-3.222-0.682-4.87c-0.011-1.658,0.237-3.307,0.736-4.888
		c0.451-1.456,1.18-2.811,2.148-3.989c0.963-1.148,2.172-2.066,3.537-2.686c1.518-0.676,3.166-1.012,4.828-0.984
		c1.197-0.007,2.389,0.162,3.537,0.501c1.068,0.311,2.073,0.808,2.969,1.467c0.874,0.654,1.611,1.474,2.167,2.414
		c0.599,1.029,0.985,2.168,1.135,3.349h-3.168C310.97,25.366,310.122,24.005,308.869,23.1z"/>
	<path d="M317.693,31.392c0.331-1.055,0.875-2.031,1.599-2.867c0.728-0.825,1.629-1.48,2.637-1.919c2.323-0.94,4.92-0.94,7.242,0
		c1.001,0.443,1.895,1.098,2.619,1.919c0.724,0.836,1.268,1.812,1.599,2.867c0.363,1.15,0.542,2.349,0.531,3.555
		c0.011,1.2-0.168,2.393-0.531,3.537c-0.333,1.051-0.877,2.022-1.599,2.855c-0.722,0.819-1.617,1.468-2.619,1.901
		c-2.327,0.917-4.915,0.917-7.242,0c-1.01-0.429-1.911-1.079-2.637-1.901c-0.722-0.832-1.267-1.804-1.599-2.855
		c-0.363-1.143-0.543-2.337-0.531-3.537C317.151,33.741,317.33,32.542,317.693,31.392L317.693,31.392z M320.578,37.729
		c0.243,0.749,0.635,1.441,1.153,2.034c0.477,0.535,1.063,0.961,1.72,1.249c0.658,0.286,1.368,0.434,2.085,0.434
		c0.718,0,1.427-0.148,2.085-0.434c0.657-0.288,1.243-0.714,1.72-1.249c0.518-0.593,0.91-1.285,1.153-2.034
		c0.556-1.815,0.556-3.755,0-5.57c-0.246-0.753-0.637-1.45-1.153-2.052c-0.473-0.544-1.06-0.976-1.72-1.267
		c-0.658-0.286-1.368-0.434-2.085-0.434c-0.718,0-1.427,0.148-2.085,0.434c-0.66,0.291-1.247,0.724-1.72,1.267
		c-0.515,0.602-0.907,1.299-1.153,2.052C320.021,33.974,320.021,35.914,320.578,37.729z"/>
	<path d="M340.24,19.732v23.814h-2.836V19.732H340.24z"/>
	<path d="M344.241,31.392c0.331-1.055,0.875-2.031,1.599-2.867c0.728-0.825,1.629-1.48,2.637-1.919c2.322-0.94,4.919-0.94,7.242,0
		c1.001,0.443,1.895,1.098,2.619,1.919c0.724,0.836,1.268,1.812,1.599,2.867c0.363,1.15,0.542,2.349,0.531,3.555
		c0.012,1.2-0.168,2.393-0.531,3.537c-0.333,1.051-0.877,2.022-1.599,2.855c-0.722,0.819-1.617,1.468-2.619,1.901
		c-2.327,0.917-4.915,0.917-7.242,0c-1.01-0.429-1.911-1.079-2.637-1.901c-0.722-0.832-1.267-1.804-1.599-2.855
		c-0.363-1.143-0.543-2.337-0.531-3.537C343.699,33.741,343.878,32.542,344.241,31.392L344.241,31.392z M347.126,37.729
		c0.243,0.749,0.635,1.441,1.153,2.034c0.477,0.535,1.063,0.961,1.72,1.249c0.658,0.286,1.368,0.434,2.085,0.434
		c0.718,0,1.427-0.148,2.085-0.434c0.657-0.288,1.243-0.714,1.72-1.249c0.518-0.593,0.91-1.285,1.153-2.034
		c0.556-1.815,0.556-3.755,0-5.57c-0.246-0.753-0.637-1.45-1.153-2.052c-0.473-0.544-1.06-0.976-1.72-1.267
		c-0.658-0.286-1.368-0.434-2.085-0.434c-0.718,0-1.427,0.148-2.085,0.434c-0.66,0.291-1.247,0.724-1.72,1.267
		c-0.515,0.602-0.907,1.299-1.153,2.052C346.569,33.974,346.569,35.914,347.126,37.729z"/>
	<path d="M366.354,26.298v3.621h0.066c0.555-1.24,1.43-2.311,2.535-3.102c1.138-0.703,2.468-1.03,3.802-0.935V28.9
		c-0.988-0.025-1.972,0.132-2.903,0.465c-0.755,0.278-1.423,0.751-1.937,1.37c-0.511,0.642-0.875,1.388-1.068,2.185
		c-0.235,0.966-0.346,1.957-0.332,2.951v7.671h-2.837V26.298H366.354z"/>
	<path d="M390.168,43.48c-0.628,0.321-1.33,0.471-2.034,0.435c-0.317,0.019-0.635-0.024-0.935-0.127
		c-0.3-0.104-0.577-0.265-0.815-0.476c-0.24-0.274-0.421-0.594-0.533-0.941c-0.112-0.347-0.152-0.712-0.118-1.075
		c-0.721,0.891-1.655,1.584-2.716,2.016c-1.779,0.679-3.721,0.801-5.57,0.35c-0.652-0.157-1.267-0.44-1.811-0.833
		c-0.517-0.39-0.931-0.9-1.207-1.485c-0.319-0.696-0.474-1.456-0.453-2.221c-0.034-0.834,0.138-1.663,0.501-2.414
		c0.315-0.6,0.765-1.119,1.316-1.515c0.567-0.399,1.197-0.697,1.865-0.881c0.7-0.201,1.418-0.368,2.155-0.501
		c0.736-0.133,1.477-0.249,2.221-0.35c0.625-0.063,1.244-0.174,1.853-0.332c0.463-0.101,0.897-0.307,1.267-0.604
		c0.16-0.156,0.284-0.344,0.365-0.553c0.08-0.208,0.115-0.432,0.1-0.654c0.025-0.524-0.097-1.044-0.35-1.503
		c-0.218-0.364-0.529-0.663-0.899-0.869c-0.376-0.202-0.785-0.337-1.207-0.398c-0.448-0.067-0.899-0.101-1.352-0.103
		c-1.048-0.04-2.089,0.195-3.018,0.682c-0.804,0.455-1.239,1.316-1.304,2.583h-2.837c0.013-0.941,0.242-1.866,0.67-2.704
		c0.38-0.724,0.928-1.345,1.599-1.811c0.695-0.468,1.47-0.801,2.287-0.984c0.903-0.206,1.826-0.307,2.752-0.302
		c0.775,0.001,1.55,0.057,2.317,0.169c0.73,0.099,1.435,0.33,2.082,0.682c0.62,0.341,1.139,0.841,1.503,1.448
		c0.406,0.738,0.602,1.573,0.567,2.414v8.853c-0.016,0.492,0.022,0.983,0.115,1.467c0.077,0.31,0.338,0.465,0.785,0.465
		c0.294-0.007,0.586-0.051,0.869-0.133L390.168,43.48z M385.563,34.639c-0.417,0.301-0.895,0.507-1.4,0.604
		c-0.579,0.121-1.183,0.219-1.811,0.296c-0.628,0.076-1.267,0.165-1.919,0.266c-0.596,0.087-1.177,0.249-1.732,0.483
		c-0.49,0.205-0.92,0.531-1.249,0.948c-0.347,0.488-0.517,1.08-0.483,1.678c-0.019,0.421,0.08,0.838,0.284,1.207
		c0.182,0.313,0.434,0.579,0.736,0.779c0.32,0.209,0.676,0.356,1.05,0.435c0.416,0.09,0.841,0.135,1.267,0.133
		c0.821,0.021,1.639-0.108,2.414-0.38c0.601-0.214,1.156-0.539,1.636-0.96c0.396-0.351,0.715-0.78,0.935-1.261
		c0.188-0.401,0.292-0.837,0.302-1.279L385.563,34.639z"/>
	<path d="M405.376,43.547v-2.336h-0.066c-0.45,0.941-1.235,1.68-2.203,2.07c-1.046,0.431-2.17,0.647-3.301,0.634
		c-1.204,0.028-2.398-0.224-3.488-0.736c-0.959-0.464-1.802-1.136-2.468-1.967c-0.672-0.853-1.176-1.826-1.485-2.867
		c-0.339-1.125-0.508-2.295-0.501-3.47c-0.007-1.174,0.155-2.343,0.483-3.47c0.295-1.039,0.794-2.009,1.467-2.855
		c0.667-0.822,1.511-1.484,2.468-1.937c1.081-0.498,2.262-0.744,3.452-0.718c0.482,0.003,0.962,0.047,1.436,0.133
		c0.526,0.094,1.04,0.246,1.533,0.453c0.516,0.215,1.003,0.495,1.448,0.833c0.462,0.352,0.853,0.788,1.153,1.285h0.066v-8.872h2.837
		v23.814L405.376,43.547z M395.189,37.427c0.196,0.736,0.523,1.432,0.966,2.052c0.435,0.603,1.005,1.095,1.666,1.436
		c0.748,0.373,1.578,0.556,2.414,0.531c0.797,0.033,1.588-0.138,2.301-0.497c0.712-0.359,1.32-0.894,1.767-1.555
		c0.432-0.632,0.742-1.337,0.917-2.082c0.39-1.586,0.39-3.242,0-4.828c-0.18-0.748-0.502-1.455-0.948-2.082
		c-0.441-0.607-1.017-1.103-1.684-1.448c-0.777-0.387-1.637-0.575-2.505-0.549c-0.84-0.022-1.672,0.173-2.414,0.567
		c-0.648,0.362-1.197,0.878-1.599,1.503c-0.414,0.655-0.708,1.378-0.869,2.136c-0.179,0.811-0.268,1.638-0.266,2.468
		C394.915,35.87,395,36.659,395.189,37.427L395.189,37.427z"/>
	<path d="M412.184,31.392c0.331-1.055,0.875-2.031,1.599-2.867c0.728-0.825,1.629-1.48,2.637-1.919c2.322-0.94,4.919-0.94,7.242,0
		c1.001,0.443,1.895,1.098,2.619,1.919c0.724,0.836,1.268,1.812,1.599,2.867c0.363,1.15,0.542,2.349,0.531,3.555
		c0.011,1.2-0.168,2.393-0.531,3.537c-0.333,1.051-0.877,2.022-1.599,2.855c-0.722,0.819-1.617,1.468-2.619,1.901
		c-2.327,0.917-4.915,0.917-7.242,0c-1.01-0.429-1.911-1.079-2.637-1.901c-0.722-0.832-1.267-1.804-1.599-2.855
		c-0.363-1.143-0.543-2.337-0.531-3.537C411.642,33.741,411.821,32.542,412.184,31.392L412.184,31.392z M415.069,37.729
		c0.243,0.749,0.635,1.441,1.153,2.034c0.477,0.535,1.063,0.961,1.72,1.249c0.658,0.286,1.368,0.434,2.085,0.434
		c0.718,0,1.427-0.148,2.085-0.434c0.657-0.288,1.243-0.714,1.72-1.249c0.518-0.593,0.91-1.285,1.153-2.034
		c0.556-1.815,0.556-3.755,0-5.57c-0.246-0.753-0.637-1.45-1.153-2.052c-0.473-0.544-1.06-0.976-1.72-1.267
		c-0.658-0.286-1.368-0.434-2.085-0.434c-0.718,0-1.427,0.148-2.085,0.434c-0.66,0.291-1.247,0.724-1.72,1.267
		c-0.515,0.602-0.907,1.299-1.153,2.052C414.512,33.974,414.512,35.914,415.069,37.729z"/>
</g>
<g id="Layer_2">
	<path d="M111.003,56.074c1.042-0.009,2.081,0.093,3.102,0.302c0.861,0.167,1.681,0.501,2.414,0.984
		c0.667,0.456,1.203,1.081,1.551,1.811c0.392,0.88,0.579,1.837,0.549,2.8c0.043,1.065-0.241,2.119-0.815,3.018
		c-0.616,0.859-1.448,1.538-2.414,1.967c1.324,0.326,2.488,1.113,3.283,2.221c0.637,1.033,1.005,2.21,1.072,3.422
		c0.067,1.212-0.171,2.422-0.692,3.519c-0.447,0.858-1.093,1.596-1.883,2.155c-0.822,0.56-1.737,0.969-2.704,1.207
		c-1.019,0.267-2.067,0.401-3.12,0.398H99.79V56.074H111.003z M110.333,65.73c0.82,0.032,1.627-0.206,2.299-0.676
		c0.314-0.261,0.561-0.595,0.718-0.972c0.156-0.377,0.219-0.787,0.182-1.194c0.019-0.475-0.085-0.947-0.302-1.37
		c-0.19-0.343-0.467-0.631-0.803-0.833c-0.355-0.208-0.747-0.349-1.153-0.416c-0.447-0.078-0.899-0.117-1.352-0.115h-4.894v5.57
		L110.333,65.73z M110.635,75.839c0.493,0.002,0.984-0.049,1.467-0.151c0.429-0.092,0.838-0.262,1.207-0.501
		c0.36-0.238,0.653-0.564,0.851-0.948c0.227-0.478,0.334-1.004,0.314-1.533c0-1.207-0.344-2.08-1.032-2.619
		c-0.8-0.556-1.761-0.832-2.734-0.785h-5.679v6.536H110.635z"/>
	<path d="M122.892,67.529c0.383-1.069,0.993-2.043,1.788-2.854c0.795-0.811,1.756-1.442,2.817-1.847
		c1.17-0.449,2.416-0.67,3.669-0.652c1.26-0.017,2.511,0.204,3.687,0.652c1.065,0.402,2.028,1.031,2.826,1.843
		c0.797,0.812,1.409,1.787,1.791,2.859c0.426,1.205,0.63,2.476,0.604,3.754c0.028,1.272-0.177,2.538-0.604,3.736
		c-0.397,1.066-1.014,2.036-1.811,2.849c-0.798,0.799-1.76,1.417-2.818,1.811c-1.182,0.425-2.432,0.63-3.687,0.604
		c-1.25,0.028-2.494-0.177-3.669-0.604c-1.053-0.396-2.007-1.013-2.8-1.811c-0.797-0.811-1.414-1.782-1.811-2.849
		c-0.427-1.198-0.631-2.464-0.604-3.736C122.25,70.004,122.46,68.732,122.892,67.529L122.892,67.529z M127.195,73.298
		c0.121,0.625,0.352,1.224,0.682,1.768c0.317,0.518,0.759,0.947,1.285,1.249c0.614,0.331,1.307,0.491,2.004,0.465
		c0.701,0.024,1.396-0.136,2.016-0.465c0.533-0.3,0.981-0.729,1.304-1.249c0.33-0.544,0.561-1.143,0.682-1.768
		c0.134-0.663,0.2-1.339,0.199-2.016c0.001-0.683-0.066-1.364-0.199-2.034c-0.117-0.626-0.348-1.226-0.682-1.768
		c-0.328-0.515-0.775-0.944-1.304-1.249c-0.616-0.34-1.313-0.506-2.016-0.483c-0.652-0.034-1.302,0.108-1.881,0.413
		c-0.578,0.305-1.063,0.761-1.403,1.319c-0.346,0.55-0.585,1.16-0.706,1.798c-0.133,0.67-0.2,1.351-0.199,2.034
		c0.001,0.669,0.067,1.336,0.199,1.992L127.195,73.298z"/>
	<path d="M154.83,79.888v-2.414h-0.103c-0.539,0.944-1.354,1.7-2.336,2.167c-0.919,0.442-1.925,0.675-2.945,0.682
		c-1.063,0.035-2.122-0.135-3.12-0.501c-0.756-0.291-1.419-0.781-1.919-1.418c-0.489-0.662-0.826-1.425-0.984-2.233
		c-0.197-0.961-0.293-1.94-0.284-2.921V62.64h4.738v9.741c-0.073,1.103,0.159,2.206,0.67,3.187c0.442,0.7,1.231,1.05,2.366,1.05
		c0.525,0.047,1.054-0.034,1.541-0.234c0.488-0.201,0.92-0.516,1.26-0.918c0.579-0.768,0.869-2.03,0.869-3.784V62.64h4.738v17.242
		L154.83,79.888z"/>
	<path d="M167.799,56.074v23.814h-4.738V56.074H167.799z"/>
	<path d="M183.78,77.686c-0.502,0.882-1.265,1.587-2.185,2.016c-0.963,0.419-2.004,0.625-3.054,0.604
		c-1.178,0.026-2.345-0.231-3.404-0.748c-0.952-0.48-1.779-1.177-2.414-2.034c-0.652-0.89-1.138-1.889-1.436-2.951
		c-0.325-1.128-0.487-2.296-0.483-3.47c-0.003-1.134,0.159-2.262,0.483-3.349c0.299-1.032,0.786-2,1.436-2.855
		c0.669-0.876,1.537-1.581,2.532-2.056c0.995-0.475,2.088-0.708,3.19-0.678c1.01-0.003,2.008,0.22,2.921,0.652
		c0.9,0.413,1.659,1.08,2.185,1.919h0.066v-8.66h4.738v23.814h-4.508v-2.203H183.78z M183.581,69.164
		c-0.118-0.615-0.349-1.202-0.682-1.732c-0.319-0.492-0.747-0.905-1.249-1.207c-0.589-0.33-1.257-0.49-1.931-0.465
		c-0.686-0.023-1.365,0.137-1.967,0.465c-0.52,0.293-0.961,0.707-1.285,1.207c-0.334,0.538-0.57,1.13-0.7,1.75
		c-0.147,0.674-0.22,1.362-0.217,2.052c0.001,0.675,0.08,1.347,0.235,2.004c0.138,0.644,0.391,1.257,0.748,1.811
		c0.335,0.514,0.78,0.947,1.304,1.267c0.57,0.335,1.222,0.502,1.883,0.483c0.68,0.025,1.354-0.136,1.949-0.465
		c0.515-0.304,0.945-0.734,1.249-1.249c0.327-0.56,0.553-1.173,0.67-1.811c0.135-0.682,0.202-1.375,0.199-2.07
		C183.786,70.519,183.717,69.835,183.581,69.164L183.581,69.164z"/>
	<path d="M196.985,75.754c0.779,0.614,1.727,0.974,2.718,1.03c0.99,0.056,1.973-0.194,2.817-0.716
		c0.582-0.346,1.029-0.881,1.267-1.515h4.2c-0.668,2.068-1.69,3.547-3.066,4.436c-1.502,0.922-3.241,1.386-5.003,1.334
		c-1.253,0.018-2.499-0.203-3.669-0.652c-1.048-0.406-1.995-1.039-2.77-1.853c-0.772-0.827-1.368-1.802-1.75-2.867
		c-0.418-1.177-0.622-2.42-0.604-3.669c-0.013-1.236,0.202-2.463,0.634-3.621c0.392-1.077,1.001-2.061,1.791-2.892
		c0.789-0.831,1.741-1.49,2.796-1.936c1.134-0.478,2.354-0.716,3.585-0.7c1.33-0.032,2.647,0.26,3.838,0.851
		c1.061,0.543,1.981,1.326,2.686,2.287c0.713,0.982,1.23,2.093,1.521,3.271c0.313,1.254,0.425,2.549,0.332,3.838H195.82
		C195.885,73.934,196.273,75.058,196.985,75.754z M202.338,66.702c-0.339-0.331-0.745-0.585-1.191-0.746
		c-0.445-0.161-0.92-0.226-1.392-0.189c-0.649-0.023-1.294,0.107-1.883,0.38c-0.466,0.228-0.878,0.553-1.207,0.954
		c-0.278,0.359-0.483,0.769-0.604,1.207c-0.113,0.369-0.185,0.75-0.217,1.135h7.707c-0.138-1.017-0.558-1.974-1.213-2.764V66.702z"
		/>
	<path d="M215.567,62.64v3.205h0.066c0.223-0.537,0.526-1.038,0.899-1.485c0.374-0.451,0.814-0.843,1.304-1.165
		c0.486-0.32,1.015-0.572,1.569-0.748c0.56-0.178,1.144-0.267,1.732-0.266c0.35,0.007,0.698,0.064,1.032,0.169v4.406
		c-0.221-0.044-0.489-0.082-0.803-0.115c-0.299-0.032-0.599-0.048-0.899-0.048c-0.757-0.022-1.511,0.126-2.203,0.435
		c-0.576,0.275-1.074,0.69-1.448,1.207c-0.378,0.524-0.645,1.12-0.785,1.75c-0.161,0.711-0.24,1.438-0.235,2.167v7.773h-4.731V62.64
		H215.567z"/>
</g>
</svg>
