<?xml version="1.0" encoding="utf-8"?>
<!-- Generator: Adobe Illustrator 22.0.1, SVG Export Plug-In . SVG Version: 6.00 Build 0)  -->
<svg version="1.1" id="POB_x5F_logo" xmlns="http://www.w3.org/2000/svg" xmlns:xlink="http://www.w3.org/1999/xlink" x="0px"
	 y="0px" viewBox="0 0 1077.4 561.2" style="enable-background:new 0 0 1077.4 561.2;" xml:space="preserve">
<style type="text/css">
	.st0{fill:#FFFFFF;}
	.st1{fill:#FFFFFF;stroke:#FFFFFF;stroke-miterlimit:10;}
	.st2{fill:#961B1F;}
	.st3{fill:#243069;}
	.st4{fill:none;stroke:#243069;stroke-width:0.504;stroke-miterlimit:10;}
	.st5{fill:#FFFFFF;stroke:#243069;stroke-width:0.5045;stroke-miterlimit:3.8636;}
	.st6{fill:#243069;stroke:#243069;stroke-width:0.504;stroke-miterlimit:3.8636;}
	.st7{fill:#FFFFFF;stroke:#243069;stroke-width:0.504;stroke-miterlimit:3.8636;}
	.st8{fill:#FFFFFF;stroke:#243069;stroke-width:0.5042;stroke-miterlimit:3.8636;}
	.st9{fill:#FFFFFF;stroke:#175083;stroke-width:0.5042;stroke-miterlimit:3.8636;}
	.st10{fill:none;stroke:#243069;stroke-miterlimit:10;}
</style>
<g>
	<g id="Mark">
		<path class="st0" d="M352.4,325.3c0,28.7,6.9,36.8,26.3,36.8v6.9h-83.3v-6.9c16.2,0,26.3-5.3,26.3-36V180.9
			c0-28.3-6.9-36.8-26.3-36.8v-6.9h84.5c63.9,0,89.8,34,89.8,65.9c0,38.4-29.1,59.9-81.7,59.9c-10.1,0-18.6-0.4-35.6-2.4
			L352.4,325.3L352.4,325.3z M352.4,250.1c10.5,3.6,16.6,4,28.7,4c34.4,0,56.2-18.6,56.2-50.2c0-24.7-13.8-57.9-56.2-57.9h-28.7
			V250.1z"/>
		<path class="st0" d="M475,281.6c-0.8,64.3,37.6,80.5,57,80.5c19.8,0,29.9-6.9,50.6-29.9v10.5c-17.4,22.3-34,30.7-59.1,30.7
			c-44.9,0-77.3-31.1-77.3-74.4c0-43.3,31.6-77.3,72-77.3c33.2,0,63.9,26.7,61.9,59.9H475z M553.1,274.8
			c1.2-31.6-20.2-44.5-38.4-44.5c-23.9,0-38,17.8-39.6,44.5H553.1z"/>
		<path class="st0" d="M735.5,337.9c0,18.6,4.1,24.3,24.3,24.3v6.9h-76.5v-6.9c19.4,0,24.7-4.4,24.7-17.8v-74.8
			c0-23.1-16.6-32.8-32-32.8c-14.2,0-26.7,8.9-40.9,27.9v70c0,21.8,2.8,27.5,24.3,27.5v6.9h-75.7v-6.9c19,0,23.9-1.6,23.9-27.5
			v-80.5c0-17.4-4.5-21-23.9-21v-6.9l44.5-4.4h6.9v28.7c17-19.4,33.6-28.7,51.8-28.7c23.9,0,48.5,17,48.5,51.4L735.5,337.9
			L735.5,337.9z"/>
		<path class="st0" d="M910.7,337.9c0,18.6,4,24.3,24.3,24.3v6.9h-76.5v-6.9c19.4,0,24.7-4.4,24.7-17.8v-74.8
			c0-23.1-16.6-32.8-32-32.8c-14.2,0-26.7,8.9-40.9,27.9v70c0,21.8,2.8,27.5,24.3,27.5v6.9H759v-6.9c19,0,23.9-1.6,23.9-27.5v-80.5
			c0-17.4-4.4-21-23.9-21v-6.9l44.5-4.4h6.9v28.7c17-19.4,33.6-28.7,51.8-28.7c23.9,0,48.5,17,48.5,51.4V337.9z"/>
	</g>
	<g id="Logotype">
		<path class="st0" d="M303.6,410.2c0,6.4,1.7,11.3,8.6,11.3c6.3,0,9.6-4.2,9.6-11.6v-12.8c0-1-0.2-1.7-0.3-2.5
			c-0.2-1.7-1.8-2.3-3.9-2.5V391h10.8v1.2c-2.2,0.2-3.7,0.9-3.9,2.5c-0.1,0.7-0.3,1.5-0.3,2.5v12.9c0,9.9-6.3,13.5-12.2,13.5
			c-9.8,0-12.8-5-12.8-13.3v-13.7c0-4.3,0.2-4-3.9-4.5V391h12.3v1.2c-4.1,0.5-3.9,0.3-3.9,4.5V410.2z"/>
		<path class="st0" d="M354.4,423.1c-5.6-6.7-11.5-13.6-17.2-20.4v15.7c0,0.7,0.1,1.3,0.2,1.9c0.2,1.3,1.4,1.8,3.7,1.9v0.9h-8.7
			v-0.9c1.7-0.2,2.9-0.7,3-1.9c0.1-0.6,0.2-1.2,0.2-1.9v-16.7c-1-1.3-2.1-2.4-4.1-2.4v-0.9h6.4c5.3,6.4,10.8,12.9,16,19.3h0.1v-14.6
			c0-0.7-0.1-1.3-0.2-1.9c-0.2-1.3-1.4-1.8-3.7-1.9v-0.9h8.7v0.9c-1.7,0.2-2.9,0.7-3,1.9c-0.1,0.6-0.2,1.2-0.2,1.9v20L354.4,423.1
			L354.4,423.1z"/>
		<path class="st0" d="M372.5,418.7c0,3.3-0.1,3.1,3,3.5v0.9H366v-0.9c3.2-0.4,3-0.2,3-3.5v-15.9c0-3.3,0.1-3.1-3-3.5v-0.9h9.5v0.9
			c-3.2,0.4-3,0.2-3,3.5V418.7z"/>
		<path class="st0" d="M390.7,399.2c-1.9,0-3.4,0.6-2.2,4c1.4,4.2,3.4,10.3,5.3,15.7c2.3-5.4,4.4-10.9,6.6-16.3
			c0.9-2.2,0-3.3-2.4-3.3v-0.9h7.7v0.9c-1,0-2.2,0.4-2.9,2.1c-3,7.3-6,14.5-9,21.7h-1.8c-2.2-6.1-4.6-13-6.7-19
			c-1.3-3.8-2.4-4.9-4.1-4.9v-0.9h9.6L390.7,399.2L390.7,399.2z"/>
		<path class="st0" d="M411,422.2c3.2-0.4,3-0.2,3-3.5v-15.9c0-3.3,0.1-3.1-3-3.5v-0.9h15.8v5.7h-0.9c-0.4-2.6-1.1-4.6-3.6-4.6h-4.8
			v10.1h3c2.2,0,3.2-0.9,3.3-3.1h0.9v7.5h-0.9c-0.1-2.1-0.9-3.3-3.3-3.3h-3v8c0,3,1.4,3.3,4.6,3.3c5.1,0,4.9-1.4,6.5-5.2h0.9
			l-1.1,6.4H411V422.2z"/>
		<path class="st0" d="M434.9,398.3h10.3c3.6,0,7.2,1.9,7.2,6c0,3.6-2.2,6.2-5,7.2l3.5,5.3c1.8,2.6,3.8,5.1,5,5.8v0.5h-3.6
			c-2.1,0-3.2-3.9-7.5-11h-3.3v6.6c0,3.3-0.1,3.1,3,3.5v0.9h-9.5v-0.9c3.2-0.4,3-0.2,3-3.5v-15.9c0-3.3,0.1-3.1-3-3.5L434.9,398.3
			L434.9,398.3z M441.4,411h2.9c3.1,0,4.5-2.3,4.5-6.3c0-3.9-2.1-5.2-4.7-5.2h-2.7L441.4,411L441.4,411z"/>
		<path class="st0" d="M473.4,403.6c-0.3-2.5-1.6-4.5-4.5-4.5c-2.1,0-3.9,1.1-3.9,3.7c0,2.5,2.5,4,6,6.6c3.7,2.8,5,4.6,5,7.5
			c0,4.2-4.3,6.5-8.6,6.5c-2.3,0-4.2-0.4-6.1-1.1c-0.1-0.1-0.2-0.2-0.2-0.5v-5.1h0.9c0.4,3.9,3,5.5,5.7,5.5c2.5,0,4.6-1.9,4.6-4.5
			c0-2.3-1.2-4.2-6.6-7.7c-1.9-1.3-4.3-2.7-4.3-6.5c0-3.2,3.5-5.7,7.6-5.7c1.5,0,3.5,0.2,5,0.7c0.2,0.1,0.2,0.2,0.2,0.4v4.6H473.4z"
			/>
		<path class="st0" d="M488.9,418.7c0,3.3-0.1,3.1,3,3.5v0.9h-9.5v-0.9c3.2-0.4,3-0.2,3-3.5v-15.9c0-3.3,0.1-3.1-3-3.5v-0.9h9.5v0.9
			c-3.2,0.4-3,0.2-3,3.5V418.7z"/>
		<path class="st0" d="M509.4,418.7c0,3.3-0.1,3.1,3,3.5v0.9h-9.5v-0.9c3.2-0.4,3-0.2,3-3.5v-19.2h-3.2c-3.1,0-3.8,1.9-5,4.3H497
			l1-5.4h19.6l1,5.4h-0.9c-1.2-2.3-1.9-4.3-5-4.3h-3.2L509.4,418.7L509.4,418.7z"/>
		<path class="st0" d="M528.8,422.2c3.2-0.4,3-0.2,3-3.5v-5.5l-5.5-10.8c-1.2-2.3-2.2-3.2-3.8-3.2v-0.9h9v0.9
			c-2.7,0-2.4,1.3-1.6,3.2l4.3,8.9l4.9-8.9c1.2-2.2,0.1-3.2-2-3.2v-0.9h7.3v0.9c-1,0-1.9,0.5-2.9,2.2l-5.9,10.7
			c-0.4,0.7-0.4,1.7-0.4,2.6v4c0,3.3-0.1,3.1,3,3.5v0.9h-9.5L528.8,422.2L528.8,422.2z"/>
		<path class="st0" d="M560.6,414.6c0-6,5.2-15,12.9-15c6.1,0,7.4,4.1,7.4,8.3c0,5-4,15.8-12.8,15.8
			C562.2,423.6,560.6,418.9,560.6,414.6z M576.7,405.7c0-4.8-2.9-5-3.6-5c-5,0-8.2,8.9-8.2,14.9c0,2.4,0.4,6.7,3.8,6.7
			C573.9,422.3,576.7,413.6,576.7,405.7z"/>
		<path class="st0" d="M604,401.1l-1.1,1h-6c-2.2,10.9-5.9,25.5-8.5,32.4h-2.1l6.6-32.4h-4.4l0.4-1.9h4.3
			c2.4-9.8,10.5-10.8,12.4-10.8c1.1,0,3.3,0.2,3.9,0.8l-0.6,3l-1.1,0.6c-0.6-1.2-2.1-2.7-4-2.7c-2.8,0-4.8,1.9-5.9,6.8l-0.5,2.2h6.7
			L604,401.1z"/>
		<path class="st0" d="M632,417.4c0,4.3-0.2,4,3.9,4.5v1.2h-12.3v-1.2c4.1-0.5,3.9-0.3,3.9-4.5v-20.7c0-4.3,0.2-4-3.9-4.5V391h12
			c7.6,0,11.4,3,11.4,8.5c0,6.6-6,10.2-13,9.8v-0.9c5.7,0.1,8.4-3.3,8.4-8.4c0-5.1-2.5-7.5-7.6-7.5H632V417.4z"/>
		<path class="st0" d="M653.3,422.2c3.2-0.4,3-0.2,3-3.5v-15.9c0-3.3,0.1-3.1-3-3.5v-0.9h15.8v5.7h-0.9c-0.4-2.6-1.1-4.6-3.6-4.6
			h-4.8v10.1h3c2.2,0,3.2-0.9,3.3-3.1h0.9v7.5H666c-0.1-2.1-0.9-3.3-3.3-3.3h-3v8c0,3,1.4,3.3,4.6,3.3c5.1,0,4.9-1.4,6.5-5.2h0.9
			l-1.1,6.4h-17.4V422.2z"/>
		<path class="st0" d="M699.9,423.1c-5.6-6.7-11.5-13.6-17.2-20.4v15.7c0,0.7,0.1,1.3,0.2,1.9c0.2,1.3,1.4,1.8,3.7,1.9v0.9h-8.7
			v-0.9c1.7-0.2,2.9-0.7,3-1.9c0.1-0.6,0.2-1.2,0.2-1.9v-16.7c-1-1.3-2.1-2.4-4.1-2.4v-0.9h6.4c5.3,6.4,10.8,12.9,16,19.3h0.1v-14.6
			c0-0.7-0.1-1.3-0.2-1.9c-0.2-1.3-1.4-1.8-3.7-1.9v-0.9h8.7v0.9c-1.7,0.2-2.9,0.7-3,1.9c-0.1,0.6-0.2,1.2-0.2,1.9v20L699.9,423.1
			L699.9,423.1z"/>
		<path class="st0" d="M731.6,423.1c-5.6-6.7-11.5-13.6-17.2-20.4v15.7c0,0.7,0.1,1.3,0.2,1.9c0.2,1.3,1.4,1.8,3.7,1.9v0.9h-8.7
			v-0.9c1.7-0.2,2.9-0.7,3-1.9c0.1-0.6,0.2-1.2,0.2-1.9v-16.7c-1-1.3-2.1-2.4-4.1-2.4v-0.9h6.4c5.3,6.4,10.8,12.9,16,19.3h0.1v-14.6
			c0-0.7-0.1-1.3-0.2-1.9c-0.2-1.3-1.4-1.8-3.7-1.9v-0.9h8.7v0.9c-1.7,0.2-2.9,0.7-3,1.9c-0.1,0.6-0.2,1.2-0.2,1.9v20L731.6,423.1
			L731.6,423.1z"/>
		<path class="st0" d="M754.7,403.6c-0.3-2.5-1.6-4.5-4.5-4.5c-2,0-3.9,1.1-3.9,3.7c0,2.5,2.5,4,6,6.6c3.8,2.8,5,4.6,5,7.5
			c0,4.2-4.3,6.5-8.6,6.5c-2.3,0-4.2-0.4-6.1-1.1c-0.1-0.1-0.2-0.2-0.2-0.5v-5.1h0.9c0.4,3.9,3,5.5,5.7,5.5c2.5,0,4.6-1.9,4.6-4.5
			c0-2.3-1.2-4.2-6.6-7.7c-1.9-1.3-4.3-2.7-4.3-6.5c0-3.2,3.5-5.7,7.6-5.7c1.5,0,3.5,0.2,5,0.7c0.2,0.1,0.2,0.2,0.2,0.4v4.6H754.7z"
			/>
		<path class="st0" d="M769,422.2c3.2-0.4,3-0.2,3-3.5v-5.5l-5.5-10.8c-1.2-2.3-2.2-3.2-3.8-3.2v-0.9h9v0.9c-2.7,0-2.4,1.3-1.6,3.2
			l4.3,8.9l4.9-8.9c1.2-2.2,0.1-3.2-2-3.2v-0.9h7.3v0.9c-1,0-2,0.5-2.9,2.2l-5.9,10.7c-0.4,0.7-0.4,1.7-0.4,2.6v4
			c0,3.3-0.1,3.1,3,3.5v0.9H769L769,422.2L769,422.2z"/>
		<path class="st0" d="M790.5,422.2c3.2-0.4,3-0.2,3-3.5v-15.9c0-3.3,0.1-3.1-3-3.5v-0.9h9.5v0.9c-3.2,0.4-3,0.2-3,3.5v16.5
			c0,2.5,1.4,2.7,4.5,2.7c5.1,0,4.9-1.4,6.6-5.2h0.9l-1.1,6.4h-17.4L790.5,422.2L790.5,422.2z"/>
		<path class="st0" d="M821.3,399.2c-1.9,0-3.4,0.6-2.2,4c1.4,4.2,3.4,10.3,5.3,15.7c2.3-5.4,4.4-10.9,6.6-16.3
			c0.9-2.2,0-3.3-2.4-3.3v-0.9h7.7v0.9c-1,0-2.2,0.4-2.9,2.1c-3,7.3-6,14.5-9,21.7h-1.8c-2.2-6.1-4.6-13-6.7-19
			c-1.3-3.8-2.4-4.9-4.1-4.9v-0.9h9.6L821.3,399.2L821.3,399.2z"/>
		<path class="st0" d="M842.1,414.9l-1.6,4.7c-0.5,1.4,0.2,2.6,1.8,2.6v0.9h-6.4v-0.9c1,0,2-0.6,2.6-1.8c1.5-3.1,5.7-14.7,8.6-22.5
			h2c2.4,7.1,6,18,7.2,21.2c0.8,2,1.3,3.1,2.9,3.1v0.9h-8.3v-0.9c2.2,0,2.4-1.2,1.9-2.7l-1.5-4.6H842.1z M850.7,413.5l-3.8-11.5
			h-0.1l-4.2,11.5H850.7z"/>
		<path class="st0" d="M886.3,423.1c-5.6-6.7-11.5-13.6-17.2-20.4v15.7c0,0.7,0.1,1.3,0.2,1.9c0.2,1.3,1.4,1.8,3.7,1.9v0.9h-8.7
			v-0.9c1.7-0.2,2.9-0.7,3-1.9c0.1-0.6,0.2-1.2,0.2-1.9v-16.7c-1-1.3-2.1-2.4-4.1-2.4v-0.9h6.4c5.3,6.4,10.8,12.9,16,19.3h0.1v-14.6
			c0-0.7-0.1-1.3-0.2-1.9c-0.2-1.3-1.4-1.8-3.7-1.9v-0.9h8.7v0.9c-1.7,0.2-2.9,0.7-3,1.9c-0.1,0.6-0.2,1.2-0.2,1.9v20L886.3,423.1
			L886.3,423.1z"/>
		<path class="st0" d="M903,418.7c0,3.3-0.1,3.1,3,3.5v0.9h-9.5v-0.9c3.2-0.4,3-0.2,3-3.5v-15.9c0-3.3,0.1-3.1-3-3.5v-0.9h9.5v0.9
			c-3.2,0.4-3,0.2-3,3.5V418.7z"/>
		<path class="st0" d="M917.8,414.9l-1.6,4.7c-0.5,1.4,0.2,2.6,1.8,2.6v0.9h-6.5v-0.9c1,0,2-0.6,2.6-1.8c1.5-3.1,5.7-14.7,8.6-22.5
			h2c2.4,7.1,6,18,7.2,21.2c0.8,2,1.3,3.1,2.9,3.1v0.9h-8.2v-0.9c2.2,0,2.4-1.2,1.9-2.7l-1.5-4.6H917.8z M926.4,413.5l-3.7-11.5
			h-0.1l-4.2,11.5H926.4z"/>
	</g>
	<g id="Shield">
		<path class="st1" d="M1.8,130.2h266.7c0,0,0,131,0,133.3c-1.8,108.7-123.6,165.8-138.9,165.3C113.6,428.3,1.4,372.4,1.7,263
			C1.8,261,1.8,130.2,1.8,130.2z"/>
		<path class="st0" d="M8.2,137.3h254c0,0,0,124.8,0,127c-1.7,103.5-117.7,157.9-132.3,157.4c-15.2-0.5-122.1-53.8-121.7-158
			C8.2,261.9,8.2,137.3,8.2,137.3z"/>
		<path class="st2" d="M8.2,214.5c0.4,0.4,0-77.2,0-77.2h253.9c0,0,0,41.6,0,77.2L8.2,214.5z"/>
		<path class="st3" d="M22.4,327.4c9.8,20.5,21.8,37.1,38.8,51.1l73.9-74.7l71.2,73c14.7-13.4,29-29.7,39.2-48.9L135,221.6
			l-112.1,106L22.4,327.4z"/>
		<line class="st4" x1="8.2" y1="215" x2="262" y2="214.9"/>
		<path class="st5" d="M198.4,156.5h6.9c5.1-1.2,6.9-4.1,12.1-4.1c3.7,0,5.5,2.5,8.2,2.5c2.3,0,5.9-2.6,9.8-2.6c4,0,6,2.4,8.6,3.5
			c2.3,1,5.4,0.9,8.6,0.9c-0.1,2.3,0,3.7,0,5.6c0,2,2.7,1.2,2.7,4.4c0,3.4-3.4,2.7-3.4,4.1l-0.1,12.6c0.2,1.6,3.3,1.8,3.3,4.2
			c0,3.6-3.5,2.3-3.3,5.1c0.2,2.1,0,6.5,0,6.5c-6.8,0-50.7,0.4-52.9,0.3c0.1-4.7,0.9-4.4,1-6.6c0.1-1.8-3.9-2.9-3.9-6
			c0-2.1,2.4-2,2.7-4v-12.6c-0.1-1.7-3.8-2.5-3.7-4.8c0.2-2.8,3.4-2.5,3.4-4.3C198.4,160.3,198.5,157.3,198.4,156.5z"/>
		<path class="st4" d="M204.1,156.7c0,0,0.1,28.1,0,34.7c0,0,40.9,0.1,42.7-0.1c0-7.5,0-34.9,0-34.9"/>
		<line class="st4" x1="225.5" y1="154.9" x2="225.5" y2="191.5"/>
		<path class="st6" d="M226.1,187c1.8,0.1,5.1,1.3,8.3,2.3c4.2,1.3,8.6,0.4,11.8,1c1,0.2-20.2,0.4-20.2,0.4
			C226.2,186.6,226.1,187,226.1,187z"/>
		<g>
			<ellipse class="st6" cx="225.5" cy="192.4" rx="2.4" ry="1.7"/>
			<path class="st6" d="M225.5,192.4"/>
		</g>
		<path class="st6" d="M224.3,187c-1.8,0.1-5.1,1.3-8.3,2.3c-4.2,1.3-8.6,0.4-11.8,1c-1,0.2,20.2,0.4,20.2,0.4
			C224.2,186.6,224.3,187,224.3,187z"/>
		<path class="st7" d="M83.6,202.8c0.7,2.7,2.7,4.5,6,4.5c6.1,0,12.1-4.5,15.6-7.1c2.8-2,5.7-4.1,5.7-8.4l-0.5,1.7
			c0,0,4.8-4.8,16.7-1c3.3,1.1,17.4,9,20.4,10.3c2.6,1.1,11.8,7.7,26.1,5.2c0,0,21.9-3,17-25.6c-3.5-16.1-2.4-17.3-1.1-22.4
			c-0.5-0.2-13.4-3.1-13,14.7c-5.6,0.6-12.7,4.8-8.1,15.9c1.9-2.8,4.4-5.8,7.9-5.8c2.2,0,4.5,3.1,4.6,5.5c0.3,5.6-5.3,8.1-12.4,6.9
			c-3.6-0.6-6.9-4.5-11.8-8.1c0.9-0.4,1.6-3.3,1.6-4.5c0-2.9-2.4-4.2-4.1-5.1c0.3-1,1-2.3,1-3.3c0-2.3-3.2-2.1-4.5-3
			c0.5-0.7,0.5-0.3,0.5-1.3c0-3.3,0.5-5.1-6.2-5c0.6-3.3-0.1-5.4-2.4-6.3l-5-0.7c-3.1-0.6,0-1.6-2.9-4.4c-2.5-2.5-6.7,0-6.7,0
			c0-2.3-1.6-4.1-4.3-4.1c-1.5,0-3.3,0.1-4.3,0.7l-2.1,1.7c-2.6,0-3.2-2.3-6.2-2.3c-3,0-4.2,2.3-5.3,3.8c-2-1-2.3-2.6-5-2.6
			c-1.6,0-2.1,1.7-2.7,2.5c-1.8,1.9-1.6,4-4.4,4.9l-1-1.8c0-0.1-0.1-0.2-0.1-0.3c-4,1.9-13.1,22.7-13.1,27c0,4.1,3.5,2.3,3.5,6.6
			c0,2.6-3.8,4.4-3.8,6.6c0,2.8,3.2,4.1,6,4.1L83.6,202.8z"/>
		<path class="st6" d="M93.1,185.4c0,0,4.5,1.7,4.5,2.6c0,1.3-2.9,2.6-4.8,4.3h-2.4c0.9-2.8,0-1.8,0-4.3
			C90.4,186.2,92.4,185.4,93.1,185.4z"/>
		<path class="st4" d="M109.4,177.8c2.3-1.1,1.2-4,5-4c3.3,0,4.6,2.3,7.6,2.3c2,0,3.4-2,6.2-2c2.4,0,5.7,3.3,5.2,7.3
			c0,0,8.6-2.8,8.2,6.5c6.9-2.3,6.2,3.4,6.9,6.1c0.7,2.6,5.2,0.5,4.5,6.1"/>
		<path class="st5" d="M17.8,156.7h6.9c5.1-1.2,6.9-4.1,12.1-4.1c3.7,0,5.5,2.5,8.2,2.5c2.3,0,5.9-2.6,9.8-2.6c4,0,6,2.4,8.6,3.5
			c2.3,1,5.4,0.9,8.6,0.9c-0.1,2.3,0,3.7,0,5.6c0,2,2.7,1.2,2.7,4.4c0,3.4-3.4,2.7-3.4,4.1l-0.1,12.6c0.2,1.6,3.3,1.8,3.3,4.2
			c0,3.6-3.5,2.3-3.3,5.1c0.2,2.1,0,6.5,0,6.5c-6.8,0-49.8,0-51.9,0c0.1-4.7-0.1-4,0.1-6.3c0.1-1.8-3.9-2.9-3.9-6c0-2.1,2.4-2,2.7-4
			v-12.6c-0.1-1.7-3.8-2.5-3.7-4.8c0.2-2.8,3.4-2.5,3.4-4.3C17.7,160.5,17.8,157.5,17.8,156.7z"/>
		<path class="st4" d="M23.4,156.9c0,0,0.1,28.1,0,34.7c0,0,40.9,0.1,42.7-0.1c0-7.5,0-34.9,0-34.9"/>
		<line class="st4" x1="44.8" y1="155.2" x2="44.8" y2="191.7"/>
		<path class="st6" d="M45.5,187.2c1.8,0.1,5.1,1.3,8.3,2.3c4.2,1.3,8.6,0.4,11.8,1c1,0.2-20.2,0.4-20.2,0.4
			C45.6,186.8,45.5,187.2,45.5,187.2z"/>
		<g>
			<ellipse class="st6" cx="44.8" cy="192.6" rx="2.4" ry="1.7"/>
			<path class="st6" d="M44.8,192.6"/>
		</g>
		<path class="st6" d="M43.6,187.2c-1.8,0.1-5.1,1.3-8.3,2.3c-4.2,1.3-8.6,0.4-11.8,1c-1,0.2,20.2,0.4,20.2,0.4
			C43.6,186.8,43.6,187.2,43.6,187.2z"/>
		<g>
			<ellipse class="st5" cx="74" cy="319" rx="22.2" ry="21.4"/>
			<path class="st5" d="M74,319"/>
		</g>
		<g>
			<ellipse class="st8" cx="134.9" cy="267.7" rx="22.2" ry="21.4"/>
			<path class="st9" d="M134.9,267.7"/>
		</g>
		<g>
			<ellipse class="st5" cx="192.4" cy="319" rx="22.2" ry="21.4"/>
			<path class="st5" d="M192.4,319"/>
		</g>
		<path class="st4" d="M157.2,188.1c-5.7-6.2-10.7-13.6-11.5-13.9c-2.8-1.2-9.4-14.4-27.3-15.4c-4.5-0.3-21.6,1.4-22.2,5.8"/>
		<path class="st4" d="M111,192.9c0.1-0.4,0.1-0.9,0.1-1.4c0-0.7-4.2-0.3-5.2-0.6c-0.7-0.2,1.8-1.2,1.4-1.2c2.6-1,9.2-3.9,6.9-6.1
			c-2.2-2.2-3.6-4.4-4.8-5.8c-1.7-1.8-3.6-2.8-6.7-2.8c-2.6,0-6.9,4.5-8.6,5.8c1.3-1.2,5-4.5,5-7.1c0-6-4.8-11.1-6-16"/>
		<path class="st4" d="M85.4,201.9c4.7,0,7.4-0.3,9.6-1.5c2.4-1.3,6.9-4.1,7.9-6.5"/>
		<path class="st10" d="M8.1,137.3h254c0,0,0,124.8,0,127c-1.7,103.5-117.7,157.9-132.3,157.4C114.7,421.2,7.8,368,8.1,263.8
			C8.1,261.9,8.1,137.3,8.1,137.3z"/>
	</g>
</g>
</svg>
