<svg version="1.1" id="Layer_1" xmlns="http://www.w3.org/2000/svg" xmlns:xlink="http://www.w3.org/1999/xlink" x="0px" y="0px" width="100%" viewBox="0 0 1080 376" enable-background="new 0 0 1080 376" xml:space="preserve">

<path fill="#5C00E2" opacity="1.000000" stroke="none" d="
M80.028450,329.847168 
	C64.546616,327.898865 51.665527,321.304230 42.247280,308.217255 
	C42.107594,307.622772 41.892757,307.468414 41.677925,307.314056 
	C41.677921,307.314056 41.977741,307.185608 41.883926,306.857056 
	C41.241825,305.149658 40.809208,303.710541 40.126431,302.401886 
	C35.817341,294.142975 33.868389,285.442657 33.899807,276.063354 
	C34.052135,230.589218 33.774006,185.112564 34.180969,139.641556 
	C34.241188,132.912918 37.053623,126.186401 38.776382,119.506271 
	C39.464115,116.839539 40.649624,114.301178 41.608540,111.704384 
	C41.608540,111.704384 41.733021,111.724487 41.877785,111.732025 
	C42.139721,111.690369 42.256893,111.641167 42.374065,111.591965 
	C42.248867,111.392776 42.123672,111.193588 41.998478,110.994392 
	C48.240231,101.024994 57.641171,95.259933 68.966331,91.445084 
	C75.160515,91.120438 80.716881,90.088860 86.276207,90.072639 
	C131.587631,89.940437 176.899628,90.008255 222.211395,89.962219 
	C224.132660,89.960266 226.053391,89.437592 227.974380,89.157486 
	C242.116302,90.381943 253.488342,96.915436 262.750122,107.791763 
	C262.922913,108.358513 263.174744,108.475693 263.426575,108.592873 
	C263.426575,108.592873 263.376038,108.715881 263.350464,108.964622 
	C263.639801,109.432228 263.954773,109.651100 264.269714,109.869972 
	C264.269714,109.869972 264.143677,109.886276 264.129578,110.185539 
	C264.870209,111.250229 265.624939,112.015656 266.379669,112.781082 
	C266.379669,112.781082 266.251617,112.837242 266.207855,113.125610 
	C266.628632,113.784706 267.093170,114.155418 267.557709,114.526138 
	C267.557709,114.526138 267.519989,114.592690 267.378540,115.000504 
	C274.411407,129.560303 274.147675,144.784973 274.065399,160.098099 
	C273.862427,197.857651 274.025543,235.619080 273.957977,273.379608 
	C273.951233,277.163055 273.578613,280.976776 273.008514,284.720520 
	C272.267029,289.589630 271.157928,294.402740 270.207031,299.239960 
	C270.207031,299.239960 270.181915,299.103729 269.872406,299.215912 
	C269.081146,300.682281 268.599396,302.036469 268.117645,303.390656 
	C268.117645,303.390656 268.154175,303.739960 267.825928,304.008575 
	C267.363647,304.580444 267.229614,304.883698 267.095551,305.186951 
	C267.095551,305.186951 267.075562,305.064667 266.868347,305.189453 
	C266.587250,305.675232 266.513397,306.036224 266.439545,306.397186 
	C266.439545,306.397186 266.497131,306.273956 266.164429,306.335083 
	C265.593597,306.987946 265.355499,307.579712 265.117401,308.171509 
	C265.117401,308.171509 265.087708,308.067902 264.871643,308.181030 
	C264.507935,308.639099 264.360321,308.984100 264.212708,309.329071 
	C264.212708,309.329071 264.222229,309.174744 264.086792,309.193604 
	C263.830353,309.259338 263.709320,309.306244 263.588287,309.353149 
	C263.701538,309.563263 263.814789,309.773376 263.928040,309.983490 
	C256.564789,319.953247 246.455307,325.690125 234.055176,328.628326 
	C229.450684,328.551117 225.516800,328.966309 221.582489,328.970276 
	C176.315842,329.016266 131.049103,328.989471 85.782463,329.035858 
	C83.864182,329.037811 81.946442,329.564789 80.028450,329.847168 
M208.935165,142.079926 
	C208.935165,142.079926 208.855209,142.202713 208.847961,141.454910 
	C207.837265,141.018616 206.826569,140.582306 205.932632,140.095474 
	C205.932632,140.095474 205.864365,140.202835 205.832306,139.420197 
	C204.742065,138.991028 203.651810,138.561844 202.237244,138.170410 
	C202.237244,138.170410 202.000961,137.945053 201.684525,137.499329 
	C201.351242,137.367798 201.017944,137.236282 200.314682,137.120041 
	C200.314682,137.120041 200.007660,136.913010 199.878677,136.217270 
	C198.825119,135.493103 197.857529,134.346527 196.704361,134.111877 
	C187.837357,132.307693 178.965179,129.454773 170.036636,129.229950 
	C144.082184,128.576416 118.100616,128.977859 92.129883,129.042755 
	C90.411118,129.047058 88.693970,129.699341 86.383766,130.623337 
	C86.256363,131.601685 86.017845,132.580002 86.017487,133.558395 
	C85.999092,184.649658 85.993088,235.740921 86.041603,286.832153 
	C86.042931,288.231293 86.653984,289.629883 87.584465,291.607208 
	C100.612915,291.700897 113.641327,291.801819 126.669952,291.854584 
	C127.073868,291.856232 127.479790,291.359375 128.503174,290.506439 
	C128.665939,280.549927 128.833313,270.593506 128.990158,260.636902 
	C129.148102,250.609360 127.653221,252.069626 137.793762,252.008682 
	C153.865982,251.912064 170.064484,253.061127 185.786179,248.821182 
	C190.772797,247.476364 195.268433,244.311005 199.995773,242.002899 
	C199.995773,242.002899 199.975525,241.984695 200.549393,242.010742 
	C200.980331,241.649384 201.411285,241.288025 202.183380,240.326477 
	C215.908127,232.189880 224.302307,220.115829 229.150101,204.618912 
	C234.249969,189.983215 232.498901,175.741745 226.334869,161.900665 
	C225.064941,159.049088 222.629639,156.716492 220.843506,154.122971 
	C220.843506,154.122971 220.803680,154.229904 220.894424,153.720520 
	C220.570679,153.536987 220.246933,153.353439 219.318558,152.856049 
	C216.168991,149.590942 213.019409,146.325821 210.228836,142.754776 
	C209.755661,142.554840 209.282501,142.354919 208.935165,142.079926 
z" data-index="1"></path>
<path fill="#080808" opacity="1.000000" stroke="none" d="
M671.874512,189.141434 
	C676.417175,205.674988 680.849670,221.813263 685.676880,239.388596 
	C692.447876,217.393356 698.808838,196.730240 705.165100,176.082428 
	C712.817261,176.082428 720.130798,176.082428 727.743774,176.082428 
	C734.042114,196.728378 740.339478,217.371002 746.995117,239.188110 
	C752.211914,220.702698 757.140442,203.406372 761.964600,186.080978 
	C764.770752,176.003098 764.695435,175.982315 775.068420,175.984253 
	C778.730164,175.984924 782.391907,175.984360 786.858337,175.984360 
	C777.124451,205.869797 767.504700,235.404694 757.861084,265.013000 
	C751.539185,265.013000 745.542664,264.852539 739.561157,265.082550 
	C736.690308,265.192993 735.683472,264.226776 734.840210,261.474243 
	C728.915222,242.134491 722.735840,222.872681 716.317139,202.572021 
	C709.549866,223.840347 703.047729,244.275574 696.501709,264.848694 
	C689.160034,264.848694 681.854370,264.848694 674.075684,264.848694 
	C664.525452,235.449280 654.930664,205.912582 645.208923,175.985352 
	C652.207031,175.985352 658.702026,175.804703 665.171082,176.134415 
	C666.500061,176.202148 668.293091,177.935059 668.893066,179.323532 
	C670.187256,182.318710 670.845642,185.588638 671.874512,189.141434 
z" data-index="2" style="opacity: 1; visibility: visible; fill: rgb(255, 255, 255);"></path>
<path fill="#080808" opacity="1.000000" stroke="none" d="
M321.990234,193.000000 
	C321.990265,175.708557 321.990265,158.917114 321.990265,142.011642 
	C339.643738,142.011642 357.075836,140.514572 374.147339,142.357529 
	C400.693909,145.223373 410.698730,165.759598 407.522003,188.109955 
	C404.803314,207.238098 391.078278,218.896774 371.476227,219.999863 
	C362.186707,220.522644 352.843414,220.089615 343.135559,220.089615 
	C343.135559,235.291428 343.135559,249.887817 343.135559,264.747314 
	C336.013336,264.747314 329.274323,264.747314 321.990234,264.747314 
	C321.990234,241.017120 321.990234,217.258560 321.990234,193.000000 
M375.205719,162.982315 
	C364.644958,161.822372 354.084167,160.662445 343.231995,159.470505 
	C343.231995,174.757507 343.231995,188.638702 343.231995,202.915634 
	C349.556610,202.915634 355.663666,202.919312 361.770721,202.911957 
	C362.767120,202.910767 363.769440,202.921448 364.758942,202.824280 
	C376.221680,201.698761 383.199860,196.150742 385.566833,186.307770 
	C387.752869,177.217194 384.174316,168.684113 375.205719,162.982315 
z" data-index="3" style="opacity: 1; visibility: visible; fill: rgb(255, 255, 255);"></path>
<path fill="#090909" opacity="1.000000" stroke="none" d="
M449.054565,173.985687 
	C462.347992,174.172836 474.105469,177.183868 481.182587,188.903839 
	C483.800293,193.238876 485.530151,198.787842 485.653534,203.832352 
	C486.149811,224.121536 485.858948,244.429977 485.858948,265.141663 
	C479.233398,265.503265 472.823822,265.853119 466.294373,266.209473 
	C465.845001,262.269073 465.454315,258.843231 465.025665,255.084656 
	C454.968201,267.367645 441.869873,269.055695 427.787659,265.726624 
	C415.160767,262.741547 408.857330,253.381165 408.985107,239.506744 
	C409.094696,227.604965 416.024414,219.072357 429.293304,216.140335 
	C439.764069,213.826614 450.467682,212.506500 461.112915,211.081955 
	C464.027008,210.691986 465.058990,209.955292 465.064240,206.903564 
	C465.079926,197.781723 461.184143,192.991547 452.193970,191.705307 
	C440.328918,190.007736 435.856049,193.069763 431.397949,206.003693 
	C424.794647,206.003693 418.163635,206.003693 411.539642,206.003693 
	C410.495972,189.139328 427.947723,174.109131 449.054565,173.985687 
M448.928223,249.955139 
	C461.174927,246.080688 466.432068,237.719238 464.485352,224.999466 
	C461.232513,225.345978 457.924652,225.459854 454.718994,226.091995 
	C448.934387,227.232697 443.021759,228.161240 437.516571,230.155563 
	C432.300507,232.045151 430.245697,236.700363 431.034271,241.705795 
	C431.666351,245.717911 436.083557,249.440384 441.092560,249.933167 
	C443.394226,250.159607 445.735779,249.980209 448.928223,249.955139 
z" data-index="4" style="opacity: 1; visibility: visible; fill: rgb(255, 255, 255);"></path>
<path fill="#070708" opacity="1.000000" stroke="none" d="
M580.840881,185.994980 
	C583.450684,183.934341 585.968140,181.742020 588.685730,179.834915 
	C604.109070,169.011444 627.136292,173.016327 635.237305,188.291397 
	C637.652466,192.845306 638.490784,198.252487 639.899353,203.311111 
	C640.244751,204.551620 640.010498,205.958801 640.010803,207.289352 
	C640.014954,226.383163 640.013672,245.476959 640.013672,264.790100 
	C632.962402,264.790100 626.224731,264.790100 618.990356,264.790100 
	C618.990356,252.294861 619.086731,239.872742 618.952026,227.453125 
	C618.878296,220.661896 618.725586,213.843323 618.042542,207.094360 
	C617.273621,199.496445 612.723511,194.756134 605.211487,193.383499 
	C597.916504,192.050537 591.417480,193.857758 586.313293,199.544189 
	C585.210266,200.773087 584.223572,202.106476 582.704590,203.756439 
	C581.857178,205.763397 581.488403,207.405670 581.119629,209.047928 
	C581.079407,211.409195 581.039124,213.770477 580.535156,216.673431 
	C579.714294,218.899765 579.061951,220.581909 579.047791,222.269409 
	C578.955078,233.362122 579.070923,244.456726 578.954468,255.548996 
	C578.921936,258.648865 578.336487,261.742950 578.004761,264.839691 
	C577.556030,264.892273 577.107300,264.944885 576.285156,264.636902 
	C575.593750,263.981445 575.275818,263.686554 574.957886,263.391663 
	C574.640198,263.874237 574.322571,264.356812 574.004883,264.839355 
	C572.284119,264.892120 570.563354,264.944885 568.329956,264.555328 
	C565.887451,263.746826 563.957581,263.380646 562.019775,262.544983 
	C562.004639,222.052795 561.997437,182.030106 562.459351,142.004395 
	C566.736267,142.000732 570.562012,142.230591 574.346741,141.934814 
	C578.150452,141.637543 579.139343,143.119461 579.075317,146.761993 
	C578.871765,158.347275 578.933777,169.939224 579.081543,181.526199 
	C579.100647,183.023041 580.227295,184.505737 580.840881,185.994980 
z" data-index="5" style="opacity: 1; visibility: visible; fill: rgb(255, 255, 255);"></path>
<path fill="#080809" opacity="1.000000" stroke="none" d="
M928.951233,231.983322 
	C929.368286,232.995010 929.785400,234.006699 930.201111,235.611725 
	C930.416382,236.465927 930.633057,236.726776 930.849731,236.987640 
	C930.849731,236.987625 931.006470,237.412857 931.014526,238.045975 
	C932.078796,239.789017 933.134949,240.898926 934.191101,242.008850 
	C946.476257,252.817657 959.275818,251.843979 970.406250,239.372253 
	C971.135620,238.554977 972.641724,238.081543 973.800171,238.055496 
	C979.625671,237.924484 985.455688,237.995392 991.858032,237.995392 
	C987.342957,251.852219 978.312500,260.852203 964.891052,264.882507 
	C935.207458,273.796265 908.043640,253.146011 907.953613,222.097168 
	C907.921143,210.906754 910.152588,200.406235 916.428223,191.015854 
	C931.117737,169.035538 970.037354,165.920471 986.686890,195.854294 
	C986.970154,196.915588 987.447937,197.456909 987.925720,197.998230 
	C988.259705,198.474274 988.593689,198.950302 988.562012,199.775757 
	C989.107788,204.978668 990.011292,209.833725 990.966309,214.678604 
	C990.997681,214.837708 991.553711,214.893387 991.865234,214.997284 
	C991.967102,215.747391 992.068970,216.497498 991.827637,217.826050 
	C991.319946,219.275787 991.155334,220.147095 990.728638,221.220917 
	C990.312805,222.283630 990.159058,223.143845 990.002625,224.002090 
	C990.000000,224.000137 990.004944,224.005753 989.536011,224.004669 
	C971.329956,224.002899 953.592407,223.950729 935.856445,224.087769 
	C934.232544,224.100327 932.618042,225.323135 930.999146,225.983948 
	C930.608215,226.036713 930.217224,226.089462 929.220703,226.119202 
	C928.213501,226.446899 927.811829,226.797607 927.410156,227.148315 
	C927.897583,227.431335 928.385071,227.714355 928.872498,227.997375 
	C928.970520,228.436646 929.068542,228.875931 928.873474,229.788269 
	C928.704041,230.835312 928.827637,231.409317 928.951233,231.983322 
M967.334656,211.112747 
	C968.561096,211.031097 969.787598,210.949463 971.006836,210.868286 
	C970.259888,198.923203 961.876160,191.840759 949.101074,192.013504 
	C938.492188,192.156937 930.550781,199.988968 930.124878,211.112274 
	C942.215820,211.112274 954.295837,211.112274 967.334656,211.112747 
z" data-index="6" style="opacity: 1; visibility: visible; fill: rgb(255, 255, 255);"></path>
<path fill="#090809" opacity="1.000000" stroke="none" d="
M881.013428,239.124634 
	C880.737732,233.469467 877.086365,231.162079 872.745667,230.119400 
	C866.005066,228.500259 859.094299,227.600143 852.328979,226.071014 
	C839.246216,223.113968 831.693726,215.806152 830.986633,205.788666 
	C830.018921,192.078293 836.390259,181.956528 849.085327,176.958282 
	C859.066162,173.028671 869.191711,172.865356 879.190369,176.461304 
	C890.853516,180.655853 898.207153,188.729980 899.887451,202.173050 
	C893.449524,202.173050 887.073547,202.268173 880.707520,202.059814 
	C879.854858,202.031906 878.770142,200.609589 878.271240,199.597260 
	C874.157104,191.249741 864.443542,187.752319 856.598755,192.626129 
	C854.044922,194.212799 851.243835,198.159988 851.487366,200.752151 
	C851.756470,203.616882 854.884155,207.566284 857.660095,208.568054 
	C863.962524,210.842499 870.819885,211.565659 877.436523,212.989807 
	C880.004272,213.542450 882.586426,214.122925 885.066467,214.970337 
	C893.566467,217.874802 900.156433,223.064011 901.825928,232.251831 
	C903.729797,242.729019 901.101196,252.052597 892.354492,258.970947 
	C878.120178,270.229858 851.269226,269.735382 837.567200,257.777100 
	C832.005676,252.923386 828.998047,246.638168 828.665833,238.543289 
	C835.084656,238.543289 841.344543,238.451706 847.595093,238.653732 
	C848.420227,238.680405 849.532410,240.065720 849.944153,241.057404 
	C853.879333,250.534607 872.032288,253.705231 878.808594,245.848282 
	C880.163574,244.277252 880.312561,241.666153 881.013428,239.124634 
z" data-index="7" style="opacity: 1; stroke-width: 2px; stroke: rgb(255, 255, 255); visibility: visible; fill: rgb(255, 255, 255);"></path>
<path fill="#080808" opacity="1.000000" stroke="none" d="
M537.004395,193.933411 
	C533.535339,193.933105 530.557434,193.933105 527.014587,193.933105 
	C527.014587,205.042175 527.014648,215.975235 527.014587,226.908295 
	C527.014587,229.240356 526.990906,231.572708 527.018250,233.904449 
	C527.144836,244.696121 532.475403,248.977646 543.079895,246.780685 
	C545.160645,246.349625 547.213013,245.781403 549.543518,245.211639 
	C549.543518,251.777405 549.543518,258.160614 549.543518,266.000244 
	C541.897583,266.000244 534.453430,266.409119 527.070618,265.909637 
	C514.238586,265.041504 506.177155,255.125793 506.028870,240.352707 
	C505.875336,225.053314 505.994690,209.751205 505.994690,194.078552 
	C501.024048,194.078552 496.283875,194.078552 491.269745,194.078552 
	C491.269745,187.979568 491.269745,182.247925 491.269745,176.112366 
	C495.985229,176.112366 500.734192,176.112366 505.868225,176.112366 
	C505.868225,167.651062 505.868225,159.575516 505.868225,151.246811 
	C513.000427,151.246811 519.738647,151.246811 526.869446,151.246811 
	C526.869446,159.313416 526.869446,167.387207 526.869446,175.921967 
	C534.308289,175.921967 541.376343,175.921967 548.653809,175.921967 
	C548.653809,181.982986 548.653809,187.585510 548.653809,193.933716 
	C544.986206,193.933716 541.240967,193.933716 537.004395,193.933411 
z" data-index="8" style="opacity: 1; visibility: visible; fill: rgb(255, 255, 255);"></path>
<path fill="#070808" opacity="1.000000" stroke="none" d="
M810.004944,264.839508 
	C809.556274,264.892456 809.107544,264.945374 808.226074,264.540436 
	C805.009705,263.487305 802.226196,262.892059 799.000000,262.202179 
	C799.000000,260.367249 799.000000,258.566833 799.000000,256.766388 
	C799.000000,234.445831 799.000000,212.125275 799.000000,189.804718 
	C799.000000,177.927475 799.005737,178.164734 810.646484,177.882751 
	C815.274048,177.770645 816.120605,179.401413 816.089478,183.610367 
	C815.907288,208.261581 816.004395,232.914825 815.990051,257.567383 
	C815.989136,259.189178 815.845032,260.810913 815.800415,261.745789 
	C813.456726,262.996857 811.730835,263.918182 810.004944,264.839508 
z" data-index="9" style="opacity: 1; visibility: visible; fill: rgb(255, 255, 255);"></path>
<path fill="#0A0A0A" opacity="1.000000" stroke="none" d="
M818.837524,143.407913 
	C822.014709,149.030838 821.897339,154.277863 818.101929,159.021500 
	C814.975220,162.929413 810.622925,164.374161 805.646912,163.446243 
	C799.740784,162.344864 795.924377,158.567474 795.033813,153.100708 
	C794.125488,147.524414 796.856873,141.830917 801.688660,139.229202 
	C806.433655,136.674194 812.752563,137.532379 816.880432,141.309341 
	C817.492615,141.869476 818.047241,142.492447 818.837524,143.407913 
z" data-index="10" style="opacity: 1; visibility: visible; fill: rgb(255, 255, 255);"></path>
<path fill="#010101" opacity="1.000000" stroke="none" d="
M810.454895,264.912750 
	C811.730835,263.918182 813.456726,262.996857 815.800415,261.745789 
	C815.845032,260.810913 815.989136,259.189178 815.990051,257.567383 
	C816.004395,232.914825 815.907288,208.261581 816.089478,183.610367 
	C816.120605,179.401413 815.274048,177.770645 810.646484,177.882751 
	C799.005737,178.164734 799.000000,177.927475 799.000000,189.804718 
	C799.000000,212.125275 799.000000,234.445831 799.000000,256.766388 
	C799.000000,258.566833 799.000000,260.367249 799.000000,262.202179 
	C802.226196,262.892059 805.009705,263.487305 807.893982,264.460999 
	C804.523376,264.839447 801.052063,264.839447 797.290466,264.839447 
	C797.290466,235.445862 797.290466,206.074585 797.290466,176.351196 
	C803.806030,176.351196 810.541992,176.351196 817.640686,176.351196 
	C817.640686,205.552582 817.640686,235.039825 817.640686,264.985992 
	C815.448486,264.985992 813.176697,264.985992 810.454895,264.912750 
z" data-index="11" style="opacity: 1; visibility: visible; fill: rgb(255, 255, 255);"></path>
<path fill="#6021E5" opacity="1.000000" stroke="none" d="
M41.342110,111.910263 
	C40.649624,114.301178 39.464115,116.839539 38.776382,119.506271 
	C37.053623,126.186401 34.241188,132.912918 34.180969,139.641556 
	C33.774006,185.112564 34.052135,230.589218 33.899807,276.063354 
	C33.868389,285.442657 35.817341,294.142975 40.126431,302.401886 
	C40.809208,303.710541 41.241825,305.149658 41.728096,306.904968 
	C34.968964,298.687378 32.343136,288.601471 32.291248,278.056976 
	C32.065849,232.256012 32.060513,186.452805 32.270981,140.651779 
	C32.317963,130.427765 35.159222,120.707840 41.342110,111.910263 
z" data-index="12"></path>
<path fill="#131314" opacity="1.000000" stroke="none" d="
M561.990234,142.007431 
	C561.997437,182.030106 562.004639,222.052795 561.833557,262.793152 
	C561.066833,263.668671 560.478394,263.826538 559.889954,263.984375 
	C559.809326,254.857620 559.663940,245.730911 559.659973,236.604126 
	C559.646423,205.377060 559.682556,174.149979 560.155579,142.470093 
	C561.071045,142.013992 561.530640,142.010712 561.990234,142.007431 
z" data-index="13" style="opacity: 1; visibility: visible; fill: rgb(255, 255, 255);"></path>
<path fill="#4502DE" opacity="1.000000" stroke="none" d="
M270.503845,299.018188 
	C271.157928,294.402740 272.267029,289.589630 273.008514,284.720520 
	C273.578613,280.976776 273.951233,277.163055 273.957977,273.379608 
	C274.025543,235.619080 273.862427,197.857651 274.065399,160.098099 
	C274.147675,144.784973 274.411407,129.560303 267.385864,115.038040 
	C272.229919,121.704697 274.891113,129.577347 274.925476,137.905167 
	C275.122375,185.640442 275.173645,233.377945 274.844543,281.111725 
	C274.803833,287.015625 272.210907,292.901947 270.503845,299.018188 
z" data-index="14"></path>
<path fill="#4101DB" opacity="1.000000" stroke="none" d="
M227.512024,89.083809 
	C226.053391,89.437592 224.132660,89.960266 222.211395,89.962219 
	C176.899628,90.008255 131.587631,89.940437 86.276207,90.072639 
	C80.716881,90.088860 75.160515,91.120438 69.328369,91.435448 
	C72.606598,90.457108 76.157524,89.096878 79.712135,89.087166 
	C128.824356,88.952911 177.937073,89.004250 227.512024,89.083809 
z" data-index="15"></path>
<path fill="#4101DE" opacity="1.000000" stroke="none" d="
M80.488846,329.931213 
	C81.946442,329.564789 83.864182,329.037811 85.782463,329.035858 
	C131.049103,328.989471 176.315842,329.016266 221.582489,328.970276 
	C225.516800,328.966309 229.450684,328.551117 233.676575,328.585266 
	C231.020935,329.249420 228.073944,330.005280 225.126022,330.008850 
	C177.067169,330.067291 129.008179,330.030518 80.488846,329.931213 
z" data-index="16"></path>
<path fill="#010101" opacity="1.000000" stroke="none" d="
M562.459351,142.004395 
	C561.530640,142.010712 561.071045,142.013992 560.266663,142.013367 
	C560.673218,141.340164 561.409912,140.110306 562.178101,140.090317 
	C568.293884,139.931183 574.415588,140.001587 580.987122,140.001587 
	C580.987122,155.236038 580.987122,170.152206 580.914001,185.531677 
	C580.227295,184.505737 579.100647,183.023041 579.081543,181.526199 
	C578.933777,169.939224 578.871765,158.347275 579.075317,146.761993 
	C579.139343,143.119461 578.150452,141.637543 574.346741,141.934814 
	C570.562012,142.230591 566.736267,142.000732 562.459351,142.004395 
z" data-index="17" style="opacity: 1; visibility: visible; fill: rgb(255, 255, 255);"></path>
<path fill="#131314" opacity="1.000000" stroke="none" d="
M931.458679,226.083191 
	C932.618042,225.323135 934.232544,224.100327 935.856445,224.087769 
	C953.592407,223.950729 971.329956,224.002899 989.433105,224.262955 
	C989.533813,225.008698 989.268372,225.495071 989.002991,225.981445 
	C969.974731,226.048447 950.946472,226.115448 931.458679,226.083191 
z" data-index="18" style="opacity: 1; visibility: visible; fill: rgb(255, 255, 255);"></path>
<path fill="#010101" opacity="1.000000" stroke="none" d="
M578.444031,264.913086 
	C578.336487,261.742950 578.921936,258.648865 578.954468,255.548996 
	C579.070923,244.456726 578.955078,233.362122 579.047791,222.269409 
	C579.061951,220.581909 579.714294,218.899765 580.455139,217.110123 
	C580.891968,232.068085 580.982727,247.131241 580.907043,262.193573 
	C580.902344,263.127899 579.588257,264.055664 578.444031,264.913086 
z" data-index="19" style="opacity: 1; visibility: visible; fill: rgb(255, 255, 255);"></path>
<path fill="#040404" opacity="1.000000" stroke="none" d="
M991.930786,214.568176 
	C991.553711,214.893387 990.997681,214.837708 990.966309,214.678604 
	C990.011292,209.833725 989.107788,204.978668 988.516968,200.064606 
	C989.890442,204.715729 990.943359,209.427399 991.930786,214.568176 
z" data-index="20" style="opacity: 1; visibility: visible; fill: rgb(255, 255, 255);"></path>
<path fill="#040404" opacity="1.000000" stroke="none" d="
M989.407349,226.067703 
	C989.268372,225.495071 989.533813,225.008698 989.902100,224.264038 
	C990.004944,224.005753 990.000000,224.000137 990.264648,223.798492 
	C990.683167,222.737350 990.836975,221.877884 990.990784,221.018402 
	C991.155334,220.147095 991.319946,219.275787 991.751099,218.198563 
	C992.150879,220.121780 992.500671,222.272507 992.291687,224.367508 
	C992.224731,225.038788 990.680237,225.562653 989.407349,226.067703 
z" data-index="21" style="opacity: 1; visibility: visible; fill: rgb(255, 255, 255);"></path>
<path fill="#010101" opacity="1.000000" stroke="none" d="
M560.026001,264.395447 
	C560.478394,263.826538 561.066833,263.668671 561.841492,263.262634 
	C563.957581,263.380646 565.887451,263.746826 567.906128,264.475555 
	C565.383911,264.827576 562.773010,264.817047 560.026001,264.395447 
z" data-index="22" style="opacity: 1; visibility: visible; fill: rgb(255, 255, 255);"></path>
<path fill="#010101" opacity="1.000000" stroke="none" d="
M581.447876,208.892883 
	C581.488403,207.405670 581.857178,205.763397 582.556580,204.062607 
	C582.516846,205.582001 582.146423,207.159927 581.447876,208.892883 
z" data-index="23" style="opacity: 1; visibility: visible; fill: rgb(255, 255, 255);"></path>
<path fill="#040404" opacity="1.000000" stroke="none" d="
M934.063843,241.699875 
	C933.134949,240.898926 932.078796,239.789017 931.036133,238.271545 
	C932.011902,239.039642 932.974243,240.215271 934.063843,241.699875 
z" data-index="24" style="visibility: visible; fill: rgb(255, 255, 255); opacity: 1;"></path>
<path fill="#4502DE" opacity="1.000000" stroke="none" d="
M268.407776,303.191223 
	C268.599396,302.036469 269.081146,300.682281 269.939178,299.234314 
	C269.776276,300.424286 269.237091,301.708069 268.407776,303.191223 
z" data-index="25"></path>
<path fill="#010101" opacity="1.000000" stroke="none" d="
M574.333862,264.912415 
	C574.322571,264.356812 574.640198,263.874237 574.957886,263.391663 
	C575.275818,263.686554 575.593750,263.981445 575.953247,264.557861 
	C575.550842,264.888062 575.106873,264.936737 574.333862,264.912415 
z" data-index="26" style="visibility: visible; fill: rgb(255, 255, 255); opacity: 1;"></path>
<path fill="#040404" opacity="1.000000" stroke="none" d="
M987.940369,197.708374 
	C987.447937,197.456909 986.970154,196.915588 986.708740,196.201797 
	C987.268433,196.492401 987.611694,196.955460 987.940369,197.708374 
z" data-index="27" style="opacity: 1; visibility: visible; fill: rgb(255, 255, 255);"></path>
<path fill="#040404" opacity="1.000000" stroke="none" d="
M928.942993,227.680527 
	C928.385071,227.714355 927.897583,227.431335 927.410156,227.148315 
	C927.811829,226.797607 928.213501,226.446899 928.922852,226.090332 
	C929.158203,226.510880 929.085876,226.937286 928.942993,227.680527 
z" data-index="28" style="opacity: 1; visibility: visible; fill: rgb(255, 255, 255);"></path>
<path fill="#040404" opacity="1.000000" stroke="none" d="
M929.110535,231.823593 
	C928.827637,231.409317 928.704041,230.835312 928.810425,230.122238 
	C929.116882,230.543396 929.193359,231.103638 929.110535,231.823593 
z" data-index="29"></path>
<path fill="#4502DE" opacity="1.000000" stroke="none" d="
M266.301208,112.468323 
	C265.624939,112.015656 264.870209,111.250229 264.149658,110.125252 
	C264.863495,110.562325 265.543091,111.358948 266.301208,112.468323 
z" data-index="30"></path>
<path fill="#4502DE" opacity="1.000000" stroke="none" d="
M267.445068,114.263611 
	C267.093170,114.155418 266.628632,113.784706 266.223999,113.057602 
	C266.633423,113.134506 266.982941,113.567802 267.445068,114.263611 
z" data-index="31"></path>
<path fill="#4502DE" opacity="1.000000" stroke="none" d="
M265.386719,308.050476 
	C265.355499,307.579712 265.593597,306.987946 266.179565,306.401367 
	C266.236969,306.914185 265.946503,307.421844 265.386719,308.050476 
z" data-index="32"></path>
<path fill="#4502DE" opacity="1.000000" stroke="none" d="
M264.087952,309.834167 
	C263.814789,309.773376 263.701538,309.563263 263.588287,309.353149 
	C263.709320,309.306244 263.830353,309.259338 264.151428,309.236053 
	C264.351440,309.259674 264.247864,309.684814 264.087952,309.834167 
z" data-index="33"></path>
<path fill="#6021E5" opacity="1.000000" stroke="none" d="
M41.706017,307.513855 
	C41.892757,307.468414 42.107594,307.622772 42.169746,307.889221 
	C42.017067,308.001312 41.734112,307.713623 41.706017,307.513855 
z" data-index="34"></path>
<path fill="#4502DE" opacity="1.000000" stroke="none" d="
M266.657440,306.243866 
	C266.513397,306.036224 266.587250,305.675232 266.930054,305.194885 
	C267.091125,305.413818 266.983246,305.752197 266.657440,306.243866 
z" data-index="35"></path>
<path fill="#4502DE" opacity="1.000000" stroke="none" d="
M264.470337,309.210999 
	C264.360321,308.984100 264.507935,308.639099 264.925446,308.183289 
	C265.039551,308.412598 264.883759,308.752777 264.470337,309.210999 
z" data-index="36"></path>
<path fill="#4502DE" opacity="1.000000" stroke="none" d="
M267.346252,305.083893 
	C267.229614,304.883698 267.363647,304.580444 267.710846,304.141205 
	C267.814972,304.330414 267.705933,304.655640 267.346252,305.083893 
z" data-index="37"></path>
<path fill="#6021E5" opacity="1.000000" stroke="none" d="
M41.851673,111.121277 
	C42.123672,111.193588 42.248867,111.392776 42.374065,111.591965 
	C42.256893,111.641167 42.139721,111.690369 41.834961,111.685760 
	C41.647377,111.631943 41.704868,111.248154 41.851673,111.121277 
z" data-index="38"></path>
<path fill="#4502DE" opacity="1.000000" stroke="none" d="
M263.370056,108.405907 
	C263.174744,108.475693 262.922913,108.358513 262.831604,108.119141 
	C262.992096,107.996956 263.313568,108.218941 263.370056,108.405907 
z" data-index="39"></path>
<path fill="#4502DE" opacity="1.000000" stroke="none" d="
M264.195496,109.596680 
	C263.954773,109.651100 263.639801,109.432228 263.312256,108.910187 
	C263.573547,108.845802 263.847443,109.084602 264.195496,109.596680 
z" data-index="40"></path>
<path fill="#040404" opacity="1.000000" stroke="none" d="
M930.895264,236.703369 
	C930.633057,236.726776 930.416382,236.465927 930.152222,235.949982 
	C930.383484,235.936310 930.662170,236.177704 930.895264,236.703369 
z" data-index="41" style="opacity: 1;"></path>
<path fill="#FEFDFE" opacity="1.000000" stroke="none" d="
M200.007660,136.913010 
	C200.007660,136.913010 200.314682,137.120041 200.632187,137.366684 
	C201.300110,137.723907 201.650528,137.834488 202.000961,137.945068 
	C202.000961,137.945053 202.237244,138.170410 202.591156,138.433731 
	C203.918182,139.198975 204.891266,139.700912 205.864365,140.202835 
	C205.864365,140.202835 205.932632,140.095474 206.017151,140.404053 
	C207.019531,141.209335 207.937363,141.706024 208.855209,142.202713 
	C208.855209,142.202713 208.935165,142.079926 208.961151,142.352295 
	C209.281387,142.770020 209.575607,142.915359 209.869843,143.060715 
	C213.019409,146.325821 216.168991,149.590942 219.678650,153.255173 
	C220.184708,153.991074 220.439682,154.182938 220.803680,154.229904 
	C220.803680,154.229904 220.843506,154.122971 220.870087,154.482834 
	C231.275253,170.333771 231.631577,187.325165 228.383682,204.856125 
	C224.302307,220.115829 215.908127,232.189880 201.734985,240.667664 
	C200.849564,241.334137 200.412552,241.659409 199.975525,241.984695 
	C199.975525,241.984695 199.995773,242.002899 199.630768,242.041840 
	C195.141586,243.714279 191.101501,245.619034 186.877029,246.929245 
	C175.297745,250.520554 163.320267,250.041763 151.396545,249.984238 
	C143.657440,249.946899 135.917984,249.977219 127.953087,249.977219 
	C127.953087,261.719238 127.996582,272.828522 127.916901,283.936920 
	C127.900696,286.195892 127.420578,288.451569 126.698929,290.545837 
	C113.452354,290.497070 100.661171,290.611237 87.657616,290.541229 
	C87.292038,290.249207 87.138817,290.141327 86.990242,289.562683 
	C87.002060,236.409485 87.009216,183.727020 87.481163,130.989075 
	C114.021095,130.951401 140.097382,131.117752 166.170883,130.919708 
	C177.883896,130.830750 189.190765,132.300598 200.007660,136.913010 
M184.370682,173.728302 
	C184.370682,173.728302 184.420349,173.607224 184.308792,173.227493 
	C184.308792,173.227493 183.984192,173.001038 183.815811,172.340210 
	C178.992599,167.172882 172.949448,164.658524 165.061356,163.995071 
	C152.819061,163.995071 140.576767,163.995071 128.220490,163.995071 
	C128.220490,181.831406 128.220490,199.190155 128.220490,215.983917 
	C141.711670,215.983917 154.964798,216.334686 168.177551,215.758789 
	C171.884476,215.597214 175.472580,212.709915 179.040726,211.042572 
	C179.040726,211.042572 179.030579,211.122299 179.662476,211.013489 
	C180.169525,210.719650 180.676559,210.425827 181.078339,210.095612 
	C181.078339,210.095612 181.128632,210.194992 181.730896,209.984161 
	C182.559830,209.040344 183.388763,208.096527 184.114136,207.092377 
	C184.114136,207.092377 184.152878,207.205795 184.774994,206.865982 
	C190.765518,198.273193 190.921051,183.747971 185.092010,174.931976 
	C185.092010,174.931976 185.196121,174.922729 185.054535,174.378403 
	C184.800140,174.126999 184.545761,173.875610 184.370682,173.728302 
z" data-index="42"></path>
<path fill="#5302E3" opacity="1.000000" stroke="none" d="
M199.943176,136.565140 
	C189.190765,132.300598 177.883896,130.830750 166.170883,130.919708 
	C140.097382,131.117752 114.021095,130.951401 87.466354,130.740677 
	C86.986763,130.547775 86.976074,130.050232 86.976074,130.050232 
	C88.693970,129.699341 90.411118,129.047058 92.129883,129.042755 
	C118.100616,128.977859 144.082184,128.576416 170.036636,129.229950 
	C178.965179,129.454773 187.837357,132.307693 196.704361,134.111877 
	C197.857529,134.346527 198.825119,135.493103 199.943176,136.565140 
z" data-index="43"></path>
<path fill="#5914E3" opacity="1.000000" stroke="none" d="
M127.154320,290.708740 
	C127.420578,288.451569 127.900696,286.195892 127.916901,283.936920 
	C127.996582,272.828522 127.953087,261.719238 127.953087,249.977219 
	C135.917984,249.977219 143.657440,249.946899 151.396545,249.984238 
	C163.320267,250.041763 175.297745,250.520554 186.877029,246.929245 
	C191.101501,245.619034 195.141586,243.714279 199.627258,242.029770 
	C195.268433,244.311005 190.772797,247.476364 185.786179,248.821182 
	C170.064484,253.061127 153.865982,251.912064 137.793762,252.008682 
	C127.653221,252.069626 129.148102,250.609360 128.990158,260.636902 
	C128.833313,270.593506 128.665939,280.549927 128.059570,290.763245 
	C127.421288,290.976837 127.267410,290.873077 127.154320,290.708740 
z" data-index="44"></path>
<path fill="#4100DD" opacity="1.000000" stroke="none" d="
M86.679916,130.336792 
	C86.976074,130.050232 86.986763,130.547775 87.001572,130.796173 
	C87.009216,183.727020 87.002060,236.409485 86.976212,289.800537 
	C86.957535,290.509125 87.014877,290.982208 87.005539,290.993164 
	C86.996208,291.004150 86.980713,291.028717 86.980713,291.028717 
	C86.653984,289.629883 86.042931,288.231293 86.041603,286.832153 
	C85.993088,235.740921 85.999092,184.649658 86.017487,133.558395 
	C86.017845,132.580002 86.256363,131.601685 86.679916,130.336792 
z" data-index="45"></path>
<path fill="#4E0CE1" opacity="1.000000" stroke="none" d="
M228.766891,204.737518 
	C231.631577,187.325165 231.275253,170.333771 220.814087,154.493683 
	C222.629639,156.716492 225.064941,159.049088 226.334869,161.900665 
	C232.498901,175.741745 234.249969,189.983215 228.766891,204.737518 
z" data-index="46"></path>
<path fill="#4101DE" opacity="1.000000" stroke="none" d="
M126.698929,290.545837 
	C127.267410,290.873077 127.421288,290.976837 127.750366,291.057495 
	C127.479790,291.359375 127.073868,291.856232 126.669952,291.854584 
	C113.641327,291.801819 100.612915,291.700897 87.282593,291.317963 
	C86.980713,291.028717 86.996208,291.004150 87.160919,291.000732 
	C87.543343,290.979279 87.724792,290.888611 87.869980,290.725403 
	C100.661171,290.611237 113.452354,290.497070 126.698929,290.545837 
z" data-index="47"></path>
<path fill="#5302E3" opacity="1.000000" stroke="none" d="
M208.851593,141.828812 
	C207.937363,141.706024 207.019531,141.209335 205.958771,140.429321 
	C206.826569,140.582306 207.837265,141.018616 208.851593,141.828812 
z" data-index="48"></path>
<path fill="#5302E3" opacity="1.000000" stroke="none" d="
M205.848328,139.811523 
	C204.891266,139.700912 203.918182,139.198975 202.753326,138.414856 
	C203.651810,138.561844 204.742065,138.991028 205.848328,139.811523 
z" data-index="49"></path>
<path fill="#5914E3" opacity="1.000000" stroke="none" d="
M200.262451,241.997711 
	C200.412552,241.659409 200.849564,241.334137 201.564407,240.967758 
	C201.411285,241.288025 200.980331,241.649384 200.262451,241.997711 
z" data-index="50"></path>
<path fill="#5302E3" opacity="1.000000" stroke="none" d="
M210.049347,142.907745 
	C209.575607,142.915359 209.281387,142.770020 208.898239,142.389832 
	C209.282501,142.354919 209.755661,142.554840 210.049347,142.907745 
z" data-index="51"></path>
<path fill="#4E0CE1" opacity="1.000000" stroke="none" d="
M220.849060,153.975220 
	C220.439682,154.182938 220.184708,153.991074 219.980957,153.412109 
	C220.246933,153.353439 220.570679,153.536987 220.849060,153.975220 
z" data-index="52"></path>
<path fill="#5302E3" opacity="1.000000" stroke="none" d="
M201.842743,137.722198 
	C201.650528,137.834488 201.300110,137.723907 200.817169,137.359039 
	C201.017944,137.236282 201.351242,137.367798 201.842743,137.722198 
z" data-index="53"></path>

<path fill="#FBFBFB" opacity="1.000000" stroke="none" d="
M448.493744,249.970001 
	C445.735779,249.980209 443.394226,250.159607 441.092560,249.933167 
	C436.083557,249.440384 431.666351,245.717911 431.034271,241.705795 
	C430.245697,236.700363 432.300507,232.045151 437.516571,230.155563 
	C443.021759,228.161240 448.934387,227.232697 454.718994,226.091995 
	C457.924652,225.459854 461.232513,225.345978 464.485352,224.999466 
	C466.432068,237.719238 461.174927,246.080688 448.493744,249.970001 
z" data-index="55" style="opacity: 1; visibility: hidden;"></path>

<path fill="#131314" opacity="1.000000" stroke="none" d="
M990.728638,221.220917 
	C990.836975,221.877884 990.683167,222.737350 990.267334,223.800446 
	C990.159058,223.143845 990.312805,222.283630 990.728638,221.220917 
z" data-index="57" style="visibility: visible; fill: rgb(255, 255, 255); opacity: 1;"></path>
<path fill="#5B00E3" opacity="1.000000" stroke="none" d="
M165.987549,164.142181 
	C172.949448,164.658524 178.992599,167.172882 183.741119,172.793091 
	C183.917725,173.366379 184.169037,173.486801 184.420349,173.607224 
	C184.420349,173.607224 184.370682,173.728302 184.340271,173.973221 
	C184.605270,174.453003 184.900696,174.687866 185.196121,174.922729 
	C185.196121,174.922729 185.092010,174.931976 185.073608,175.288834 
	C186.036194,180.458633 187.964890,185.313416 187.754669,190.073746 
	C187.500656,195.826233 185.434647,201.498703 184.152878,207.205795 
	C184.152878,207.205795 184.114136,207.092377 183.798340,207.104156 
	C182.697922,208.142273 181.913269,209.168640 181.128632,210.194992 
	C181.128632,210.194992 181.078339,210.095612 180.804993,210.092697 
	C180.031311,210.433960 179.530945,210.778137 179.030579,211.122314 
	C179.030579,211.122299 179.040726,211.042572 178.696716,211.070908 
	C175.370224,212.068970 172.422485,213.735901 169.399200,213.886520 
	C156.974640,214.505493 144.527756,214.743408 132.086853,214.841721 
	C131.068817,214.849762 129.156570,212.762665 129.140411,211.627991 
	C128.936569,197.316666 129.057007,183.001099 128.959976,168.687546 
	C128.940674,165.840576 130.009628,164.912323 132.773224,164.961090 
	C139.928085,165.087357 147.088501,165.098206 154.243088,164.963776 
	C158.161667,164.890152 162.072968,164.428726 165.987549,164.142181 
z" data-index="58"></path>
<path fill="#4E0CE1" opacity="1.000000" stroke="none" d="
M165.524445,164.068634 
	C162.072968,164.428726 158.161667,164.890152 154.243088,164.963776 
	C147.088501,165.098206 139.928085,165.087357 132.773224,164.961090 
	C130.009628,164.912323 128.940674,165.840576 128.959976,168.687546 
	C129.057007,183.001099 128.936569,197.316666 129.140411,211.627991 
	C129.156570,212.762665 131.068817,214.849762 132.086853,214.841721 
	C144.527756,214.743408 156.974640,214.505493 169.399200,213.886520 
	C172.422485,213.735901 175.370224,212.068970 178.733948,211.086060 
	C175.472580,212.709915 171.884476,215.597214 168.177551,215.758789 
	C154.964798,216.334686 141.711670,215.983917 128.220490,215.983917 
	C128.220490,199.190155 128.220490,181.831406 128.220490,163.995071 
	C140.576767,163.995071 152.819061,163.995071 165.524445,164.068634 
z" data-index="59"></path>
<path fill="#4502DE" opacity="1.000000" stroke="none" d="
M184.463928,207.035889 
	C185.434647,201.498703 187.500656,195.826233 187.754669,190.073746 
	C187.964890,185.313416 186.036194,180.458633 185.086609,175.238220 
	C190.921051,183.747971 190.765518,198.273193 184.463928,207.035889 
z" data-index="60"></path>
<path fill="#4502DE" opacity="1.000000" stroke="none" d="
M181.429764,210.089569 
	C181.913269,209.168640 182.697922,208.142273 183.850128,207.134323 
	C183.388763,208.096527 182.559830,209.040344 181.429764,210.089569 
z" data-index="61"></path>
<path fill="#4502DE" opacity="1.000000" stroke="none" d="
M179.346527,211.067902 
	C179.530945,210.778137 180.031311,210.433960 180.857635,210.110886 
	C180.676559,210.425827 180.169525,210.719650 179.346527,211.067902 
z" data-index="62"></path>
<path fill="#5914E3" opacity="1.000000" stroke="none" d="
M87.657616,290.541229 
	C87.724792,290.888611 87.543343,290.979279 87.170258,290.989777 
	C87.014877,290.982208 86.957535,290.509125 86.971558,290.271271 
	C87.138817,290.141327 87.292038,290.249207 87.657616,290.541229 
z" data-index="63"></path>
<path fill="#4502DE" opacity="1.000000" stroke="none" d="
M184.364563,173.417358 
	C184.169037,173.486801 183.917725,173.366379 183.825302,173.123505 
	C183.984192,173.001038 184.308792,173.227493 184.364563,173.417358 
z" data-index="64"></path>
<path fill="#4502DE" opacity="1.000000" stroke="none" d="
M185.125336,174.650574 
	C184.900696,174.687866 184.605270,174.453003 184.300598,173.921173 
	C184.545761,173.875610 184.800140,174.126999 185.125336,174.650574 
z" data-index="65"></path>
</svg>